<?xml version="1.0" encoding="UTF-8"?>
<!DOCTYPE svg PUBLIC "-//W3C//DTD SVG 1.1//EN" "http://www.w3.org/Graphics/SVG/1.1/DTD/svg11.dtd">
<!-- Creator: CorelDRAW 2020 (64-Bit) -->
<svg xmlns="http://www.w3.org/2000/svg" xml:space="preserve" width="200mm" height="200mm" version="1.1" style="shape-rendering:geometricPrecision; text-rendering:geometricPrecision; image-rendering:optimizeQuality; fill-rule:evenodd; clip-rule:evenodd"
viewBox="0 0 20000 20000"
 xmlns:xlink="http://www.w3.org/1999/xlink"
 xmlns:xodm="http://www.corel.com/coreldraw/odm/2003">
 <defs>
  <style type="text/css">
   <![CDATA[
    .str0 {stroke:white;stroke-width:19.23;stroke-miterlimit:22.9256}
    .fil0 {fill:white}
   ]]>
  </style>
 </defs>
 <g id="Слой_x0020_1">
  <metadata id="CorelCorpID_0Corel-Layer"/>
  <path class="fil0 str0" d="M4240.49 15798.35c45.09,62.35 77.92,484.57 112.53,537.64 34.05,52.2 78.43,-39.62 94.89,-67.73 48.32,-82.51 -16.86,-81.45 27.42,-149.84 87.08,-85.46 416.23,195.36 213.6,243.95 -87.14,20.89 -66.39,31.3 -130.35,80.06 -99.83,76.09 -437.4,588.06 -474.06,316.22 -5.54,-41.06 6.95,-50.3 -5.71,-80.8 -60.67,-146.03 -39.71,-446.84 -87.7,-473.79 -62.9,-12.07 -86.91,42.64 -126.07,89.1 -71.37,84.66 -5.83,85.59 -29.1,157.43 -89.37,67.92 -198.4,0.66 -260.31,-72.05 -25.85,-30.36 -50.4,-107.92 -19.98,-142.36 35.78,-40.51 76.77,6.33 150.13,-49.8 58.77,-44.97 240.46,-260.58 276.11,-332.57 39.63,-80.04 -35.05,-75.27 2.4,-130.79 42.87,-63.55 86.43,-32.04 131.4,0.02l124.8 75.31zm-291.54 -175.9c-26.51,38.91 -104.71,90.37 -160.76,93.25 -90.45,-68.64 -1.54,-61.42 -63.16,-177.58 -20.34,-38.35 -90.61,-138.58 -124.4,-147.87 -41.74,9.99 -125.23,92.59 -136.9,137.69 77.28,123.84 111.99,-13.1 207.85,53.1 5.06,51.1 -8.26,69.76 -35.36,106.52 -49.14,66.65 -19.18,28.48 -80.74,66.29 -60.45,37.13 -91.43,93 -172.38,31.9 -4.77,-62.22 73.75,-95.93 -21.68,-155.5 -22.92,6.51 -201.26,121.2 -137.38,199.14 9.47,11.56 40.6,53.67 45.8,58.66 132.21,126.71 228.56,-14.27 309.47,79.71 -3.75,51.28 -74.87,105.22 -114.38,135.09 -129.23,97.69 -209.22,-84.94 -298.46,-142.32 -8.44,-5.42 -105.12,-111.31 -121.79,-129.48 -318.24,-346.71 -184.72,-191.06 12.43,-345.7 45.5,-35.69 86.65,-81.47 131.85,-119.41 237.78,-199.52 115.43,-155.41 190.66,-291.27 70.28,-126.92 164.4,63.32 188.04,86.83l315.45 312.73c38.99,37.19 114.46,76.86 65.86,148.23l-0.02 -0.01zm-703.18 -871.96c37.83,46.42 90.78,303.1 -53.06,367.96 -92.84,41.85 -68.64,62.53 -176.82,55.47 -107.78,-7.04 -99.78,-28.42 -142.4,-51.15 -17.3,-9.22 -19.53,-3.87 -42.46,-20.36 -26.93,-19.36 -147.08,-225.68 -188.65,-77.66 -36.85,131.22 -33.15,204.56 -170.59,122.95 -88.31,-52.43 -233.87,-216.63 -169.8,-312.99 32.97,-49.59 106.49,24.43 199.83,-40.74 57.78,-40.34 105.46,-72.08 155.5,-106.24 2.63,-1.8 126.11,-132.52 127.26,-134.49 49,-84.58 -7.56,-157.79 57.56,-180.17 106.32,-36.55 165.11,140.66 215.76,177.93l125 136.74c42.36,74.16 25.77,17.21 62.9,62.74l-0.03 0.01zm-841.86 -441.78c-32.89,62.22 -15.94,155.41 -70.31,222.83 -69.19,85.82 -83.12,9.2 -95.38,166.35 -113.28,6.29 -113.93,-2.39 -179.33,-79.69 -41.12,-48.63 -68.45,-129.87 -64.28,-185.27 6.26,-83.43 270.1,-267.58 153.44,-322.67 -23.63,-7.56 -109.08,47.22 -132.06,61.91 -53.29,34.06 -18.24,81.2 -51.32,126.55 -103.78,12.41 -172.98,-107.62 -228.06,-185.34 -75.9,-107.1 -86.15,-225.85 89.47,-206.53 143.28,15.75 148.47,-55.44 258.43,-116.48 163.81,-90.93 98.17,-152.54 170.41,-216.96 101.32,-90.35 173.37,40.72 214.76,121 112.06,217.39 272.63,270.58 211.69,525.15 -29.35,122.61 -240.79,89.15 -277.46,89.15zm-344.91 -1366.35c128.49,149.02 -39.2,310.97 -146.8,466.32 -25.3,36.54 -10.79,45.82 -44.48,81.16 -21.3,22.36 -34.44,31.57 -56.38,58.78 -97.83,121.29 -175.42,430.66 -338.34,158.3 -47.18,-78.88 -157.35,-270.84 -45.07,-339.97l83.39 31.79c64.38,-59.04 -64.63,-260.12 -109.3,-270.79 -60.47,31.18 -18.17,54.44 -47.9,97.75 -129.45,43.57 -213.74,-188.18 -194.3,-254.05 34.84,-118.06 71.34,-33.72 134.55,-17.85 195.54,49.09 318.67,-11.98 416.93,0.29 59.96,7.48 277.98,-92.61 347.7,-11.73zm-797.63 -226.46c-0.84,0.6 -9.23,9.36 -15.18,13.66 -98.13,-36.9 -122.34,-37.19 -205.65,-108.26 -104.54,-89.2 -69.32,-85.05 -119.13,-194.96 -34.34,-75.79 -40.07,-167.32 -15.72,-243.55 43.2,-135.27 -11.21,-75.82 90.22,-192.93 225.39,-260.25 632.59,-133.72 740.51,176.37 15.06,43.26 34.25,221 38.22,275.43 13.33,182.4 -376.87,222.13 -274.39,11.59 35.63,-73.2 72.83,-137.06 58.33,-223.41 -21.59,-128.44 -80.53,-123.3 -186.91,-105.06 -65.48,11.22 -135.41,72.01 -167.57,136.07 -146.54,291.87 135.88,335.34 122.13,405.27 -5.88,29.92 -40.9,32.71 -64.85,49.79l-0.01 -0.01zm4113.15 3988.99c156.69,85.6 120.69,131.71 68.8,255.05 -65.77,156.35 -169.71,48.41 -190.44,1.87 -21.18,-47.53 11.61,-60.72 -21.7,-146.79 -99.79,72.24 -98.49,117.35 -173.21,200.1 -165.25,183 -84.96,242.11 -106.78,332.95 -148.22,0 -171.3,-28.68 -286.01,-90.89 -65.76,-35.66 16.68,-13.28 -92.95,-95.96 -52.15,-39.33 -20.23,-37.21 -58.96,-92.23 76.26,-76.71 16.1,-45.47 113.37,-45.47 63.71,0 115.97,-107.16 196.43,-190.94 50.79,-52.9 34.99,-84.35 69.82,-118.64 31.39,-30.88 93.61,-56.74 44.25,-116.08 -33.19,-26.62 -89.85,17.8 -122.91,21.83 -198.04,24.11 -99.2,-224.34 74.15,-224.34 183.87,0 153.5,92.17 345.95,198.46 56.29,31.09 61.11,67.89 140.19,111.09l0 -0.01zm5916.43 2093.62c103.64,-122.36 135.09,-121.74 277.04,-162.69 226.07,-65.22 481.75,135.18 528.48,357.75 52.14,248.3 -174.02,472.22 -364.55,498.9 -110.43,15.46 -289.16,17.28 -369.05,-75.71 -87.99,-102.42 -160.14,-142.16 -158.55,-290.44 1.78,-165.87 -38.39,-180.17 86.62,-327.81l0.01 0zm931.4 -42.29c-24.34,-72.1 -76.49,-70.59 -119.27,-148.4 44.19,-69.22 226.91,-175.05 331.04,-105.25 75.53,50.63 154.6,179.71 243.66,237.95 119.99,-118.6 18.25,-256.89 116.62,-375.45 64.88,-78.2 254.61,-121.81 311.14,-40.32 40.4,58.22 -62.58,73.13 -23.76,174.77 17.93,46.95 22.04,9.34 25.99,93.67 3.57,76.07 60.65,215.62 91.97,284.96 34.31,75.97 75.77,78.42 106.81,145.32 -36.63,120.62 -298.17,167.29 -412.5,128.96 -10.96,-43.51 34.36,-101.87 33.21,-161.72 -0.71,-36.86 -40.65,-132.89 -61.92,-156.87 -74.79,95.89 -16.97,299.58 -82.86,346.4 -139.32,61.4 -234.88,-242.91 -306.31,-233.02 -26.28,66.42 6.04,120.57 27.85,176.46 38.21,97.9 59.32,52.16 101.38,108.01 -4.55,88.42 -65.22,67.88 -116.42,105.72 -30.4,22.48 -99.2,41.85 -149.63,24.21 -62.94,-44.01 13.72,-92.74 -8.52,-211.32 -8.29,-44.14 -23.03,-46.15 -30.05,-86.44 -7.47,-42.85 5.2,-55.26 -6.92,-106.25 -12.92,-54.28 -50.28,-138.6 -71.49,-201.4l-0.02 0.01zm-3994.2 -153.19c171.23,8.76 241.38,438.95 269.9,569.1 26.22,119.6 130.88,206.37 91.56,305.93 -36.06,91.28 -248.49,53.41 -319.87,27.4 -252.43,-91.94 -94.48,-145.63 -65.8,-199.49 -15.17,-74.38 -202.13,-95.38 -261.9,-85.69 -56.45,82.68 33.86,70.22 23.11,155.46 -73.44,68.33 -335.14,22.18 -352.17,-89.26 35.93,-32.05 89.44,-46.2 128.17,-90.73 154.61,-177.76 136.6,-201.33 182.03,-257.7 115.71,-143.58 120.97,-344.44 304.98,-335.02l-0.01 0zm-531.77 -72.56c49.14,81.3 -50.85,78.19 -85.62,117.02 -25.78,28.79 -11.98,37.5 -15.21,69.49 -6.2,61.53 -17.87,30.42 -27.09,58.69 -16.78,51.46 20.26,29.32 -44.34,161.16 -56.85,116.01 -95.42,326.69 -339.96,293.68 -74.03,-9.98 -267.26,-78.02 -331.58,-108.99 -65.2,-31.41 -85.42,-33.85 -133.83,-86.04 -65.35,-70.46 -44.09,-73.64 -37.73,-152.65 23,-285.49 138.56,-204.96 110.72,-507.72 -8.85,-96.22 -7.92,-53.25 33.52,-137.15 89.61,0.09 416.83,92.01 392.19,180.76 -18.89,67.99 -89.55,-40.31 -168.55,251.78 -22.67,83.82 -56.89,193.26 -27.78,260.77 26.04,60.42 -22.15,17.08 25.17,58.86 95.22,84.08 226.34,58.53 281.8,-60.91 21.77,-46.89 58.49,-225.11 72.42,-252.1 39.95,-77.41 55.13,-20.01 -24.13,-210.24 46.78,-72.61 280.59,-1.66 320.02,63.56l-0.02 0.03zm5805.01 77.61c-6.86,-66.22 -8.21,-136.97 -7.53,-203.96 0.64,-62.97 -33.02,-134.24 -29.16,-215.46 7.25,-152.85 195.3,-151.89 291.6,-76.47 80.39,62.96 221.12,152 282.57,219.97 96.31,106.51 213.03,138.43 280.26,212.42 100.52,110.63 -143.82,202.42 -205.69,240.02 -47.9,29.11 -41.37,9.93 -92.31,4.84 -60.45,-6.07 -43.58,26.52 -79.66,14.55 -83.32,-27.65 1.63,-107.82 -14.78,-159.98 -43.99,-31.03 -167.01,40.79 -220.3,57.31 -163.93,50.84 39.52,120.94 55.71,158.4 -7.22,82.21 -255.49,211.82 -309.76,120.8 -14.22,-23.84 49.05,-240.57 49.05,-372.44zm-3230.95 245.73c-8.46,-82.26 113.39,-67.2 175.3,-73.42 73.2,-7.36 153.52,-13.19 229.29,-21.99 173.62,-20.18 238.03,-44.66 359.87,85.97 67.69,72.57 51.42,86.67 59.38,177.96 9.23,105.95 -18.57,100.8 -75.45,163.63 -45.93,50.74 -98.04,72 -160.76,89.6 -49.99,14.03 -112.78,-13.26 -170.42,19.05 20.11,170.83 124.29,196.33 97.93,248.61 -20.41,40.48 -155.51,77.9 -156.98,78.14 -102.54,16.74 -24.24,23.73 -93.76,16.45 -18.49,-1.93 -27.32,-9.97 -48.56,-14.11 -32.23,-6.27 -105.08,6.42 -132.68,-55.39 -25.5,-57.1 51.06,-109.29 63.96,-165.41 8.64,-37.57 -7.78,-177.71 -7.72,-225.51 0.01,-13.32 30.08,-67.83 -21.03,-189.47 -30.87,-73.49 -111.88,-71.13 -118.35,-134.11l-0.02 0zm-3573.27 -561.41c-3.54,44.17 -26.33,66.23 -43.28,109.23 -17.14,43.5 -38.42,58.89 -90.87,57.71 -107.88,-2.4 -64.82,-130.17 -116.72,-190.01 -60.44,20.08 -207.29,419.12 -207.3,419.38 -5.39,85.55 56.41,93.51 49.71,152.95 -88.18,69.53 -216.18,1.32 -306.36,-32.99 -234.72,-89.3 -164.14,-145.56 -170.84,-192.01 158.1,-16.16 137.88,-99.09 203.38,-204.94 40.43,-65.34 117.95,-190.32 111.17,-279.02 -60.42,-22.59 -424.28,179.35 -180.33,-156.58 56.68,-78.04 128.75,-81.4 199.78,-21.61 34.08,28.71 58.24,17.5 112.71,44.35 137.15,67.61 453.12,116.54 438.96,293.52l-0.01 0.02zm8891.41 -1583.23c237.01,302.14 -119.49,200.33 -247.55,190.95 -64.78,-4.73 -109.61,4.4 -177.83,-6.69 -80.79,-13.14 -73.91,-13 -150.69,-6.02 1.62,76.55 37.14,99.31 78.7,151.63 52.28,65.82 86.32,35.65 151.63,78.7 51.7,89.14 -168.53,289.88 -258.34,216.47 -28.44,-15.52 -29.88,-48.15 -25.36,-83.41 7.56,-59.03 13.91,-20.16 -48.44,-135.93 -52.4,-97.27 -123.86,-191.36 -209.6,-272.01 -74.97,-70.52 -130.9,-47.98 -178.16,-94.04 -2.05,-87.56 175.81,-222.09 277.13,-214.56 28.62,2.13 81.97,12.32 111.16,15.55 53.3,5.91 61.79,-6.79 106.3,-2.16 63.96,6.65 158.33,24.26 225.32,25.68 14.02,-57.75 -30.11,-107.57 -77.54,-142.33 -59.27,-43.44 -127.51,-14.19 -131.72,-97.65 -3.44,-68.14 200.02,-173.4 280.6,-166.38 44.09,64.47 33.97,13.58 30.61,103.99 -4.15,111.77 175.87,351.63 243.8,438.22l-0.02 -0.01zm268.07 -49.36c-14.04,-66.68 13.62,-45.62 -33.99,-120.36 -22.12,-34.74 -67.19,-66.42 -95.58,-104.9 -60.8,-82.43 -108.19,-158.16 -187.26,-221.06 -94.9,-75.51 -342.18,-20.65 -14.48,-278.98 27.42,-21.62 90.71,-58.06 115.97,-82.96 21.22,-20.92 19.7,-41.96 39.93,-64.76 9.02,-10.17 41.34,-32.92 57.75,-46.94 51.58,-44.08 76.98,-98.72 95.77,-113.48 100.92,-79.15 231.49,124.87 182.25,170.68 -16.5,15.35 -133,21.25 -156.26,33.42 -112.19,58.65 -185.7,138.36 -72.26,239.81 49.29,44.09 64.23,26.01 115.03,-23.83l-32.17 -111.32c55.37,-51.65 91.13,-4.97 186.38,53.62 52.5,32.29 75.6,145.51 53.13,192.48l-118.14 -47.24 -49.22 71.3c3.61,13.95 100.12,245.17 239.16,103.84 65.1,-66.17 57.79,-38.02 74.11,-135.04 9.69,-57.63 -4.29,-130.17 18.96,-159.25 79.37,-8.01 53.34,21.7 111.47,73.7 96.06,85.91 82.25,164.19 -19.91,216.79 -97.81,50.37 38.87,-5.98 -100.11,88.34 -24.77,16.82 -64.23,63.71 -95.18,93.27 -45.85,43.78 -82.21,55.11 -107.86,80.59 -105.44,104.77 -80.62,163.48 -207.49,92.28zm555.02 -878.43c-50.07,-45.36 -166.64,-160.33 -219.55,-179.09 -49.64,-17.6 -125.05,14.36 -164.44,-13.63 -56.47,-40.13 6.3,-79.64 34.93,-121.97l276.88 -319.89c46.13,-45.21 55.85,-58.34 121.61,-77.69 155.27,-45.69 202.38,8.94 265.25,62.56 43.06,36.75 63.83,63.71 71.33,118.64 9.69,70.96 32.63,57.99 8.78,143.13 -31.16,111.19 -139.01,173.35 -171.81,216.96 37.41,142.46 155.84,22.93 251.44,148.41 -20.73,92.35 -63.88,141.72 -117.37,215.06 -76.38,104.72 -140.14,61.45 -226.52,74.38 -8.46,-177.9 -10.98,-158.59 -130.53,-266.86l0 -0.01zm889.44 -551.68c-240.62,62.47 -489.6,-108.76 -511.88,-356.21 -11,-122.19 -13.92,-64.49 12.38,-164.5 19.56,-74.39 29.14,-94.88 71.15,-159.65 87.88,-135.49 130.73,-132.58 265.07,-185.12 116.62,-45.62 275.21,8.68 369.94,69.78 68.15,43.95 161.59,214.58 163.15,297.34 3.96,209.59 -140.3,438.76 -369.81,498.35l0 0.01zm574.69 -985.8c-68.56,-69.52 -192.02,-119.2 -204.6,-129.95 -16.31,-13.93 -12.8,-21.24 -41.38,-42.34 -32.46,-23.96 -97.13,-64.77 -137.29,-53.64 -24.02,73.96 26.66,108.7 27.04,145.11 0.48,46.57 -39.04,89.29 -90.97,79.07 -112.3,-22.09 -133.58,-120.77 -174.07,-203.67 23.81,-53.43 104.63,-138.95 142.56,-189.76 155.18,-207.85 145.86,-365.37 295.35,-365.56 65.49,-0.09 195.68,46.9 203.78,120.81 13.66,124.6 -153.23,72.82 -209.09,96.2 -79.72,33.38 82.16,134.26 118.14,153.63 126.44,68.09 6.07,27.7 199.42,125.27 152.99,77.21 120.93,-28.75 221.98,18.7 0,141.54 14.73,105.61 -45.8,195 -86.42,127.65 -147.93,248.03 -261.48,205.61 -22.25,-61.93 27.82,-82.07 -43.59,-154.49l0 0.01zm405.58 -658.28l-360.79 -192.61c-34.85,-8.85 -105.47,1.58 -144.39,-2.16 -49.8,-4.79 -54.97,-27.77 -84.24,-53.4 144.57,-182.4 204.29,-374.29 243.99,-436.54 46.02,-72.16 42.83,-82.89 52.48,-167.38 78.29,-33.24 80.42,-56.59 171.15,1.71 41.16,26.46 95.19,76.53 41.08,117.6 -40.34,30.63 -114.72,40.04 -144.84,84.19 -36.21,53.06 -57.93,108.4 -59.79,170.9 12.72,17.55 67.17,71.33 82.81,84.95 87.46,-4.06 63.31,-2.1 128.94,-43.47 -19.33,-32.48 -10.69,-49.14 -33.4,-83.47 -32.46,-49.07 -38.48,-12.26 -52.86,-64.02 75.48,-45.28 121.88,-48.86 195.97,4.65 54.41,39.3 119.33,42.3 129.95,133.5 -34.33,20.88 -170.86,10.88 -145.92,110.86 10.79,43.24 133.92,87.5 176.42,97.74 84.25,-31.8 85.25,-133.25 127.43,-209.39 -54.35,-65.28 -21.68,-30.13 -41.31,-89.76 -13.83,-42.01 -35.11,-46.29 -16.43,-102.29 61.3,-30.47 160.76,48.41 224.36,96.91 -3.52,104.21 -12.4,122.3 -67.82,206.21 -87.9,133.07 -73.83,204.77 -126.34,251.22 -55.94,49.5 -40.84,132.2 -140.41,214.44 -104.13,-30.76 -66.58,-92.25 -156.04,-130.4l0 0.01zm463.98 -743.06c-35.56,2.84 -160.71,-22.07 -170.5,-98.43 101.86,-80.54 290.45,-25.44 290.45,-295.84 -161.05,0.14 -183.24,252.9 -448.15,235.33 -59.39,-3.93 -68.79,-8.47 -113.91,-50.17 -69.6,-64.35 -96.22,-73.26 -116.67,-208.09 -9.97,-65.81 42.08,-209.64 63.58,-257.22 9.1,-20.14 53.13,-72.53 62.65,-87.46 62.14,-97.46 100.16,-116.18 201.48,-99.76 124.53,20.17 100.45,117.88 -0.26,157.97 -63.84,25.42 -159.63,70.07 -123.66,187.32 118.25,53.56 225.44,-179.73 335.21,-216.62 128.44,-43.16 226.51,52.69 226.71,52.8 62.59,31.61 62.16,25.34 97.15,185.56 26.43,121 -42.66,317.31 -121.72,403.57 -107.17,116.96 -143.48,87.96 -182.38,91.05l0.02 -0.01zm-1547.56 2079.4c36.2,25.93 127.2,31.08 177.5,31.79 89.64,1.26 201.61,-157.21 -113.63,-294.59 -31.75,-13.83 -143.78,-36.85 -155.25,-33.2 -45.58,14.53 -103.63,15.94 -114.72,85.45 -19.57,122.66 147.28,168.4 206.1,210.54l0 0.01zm-656.74 583.45c64.35,-24.62 49.56,-143 -24.09,-185.28 -36.74,-21.09 -37.34,-26.87 -70.14,-46.85 -28.42,17.11 -146.41,70.14 -70.02,134.08 59.07,49.45 79.67,96.42 164.25,98.05zm-2807.97 2933.62c-23,-12.44 -58.97,-44.16 -78.04,-38.44 -52.68,15.83 -24.75,142.89 -14.98,162.85l134.32 -55.93c1.6,-55.37 -6.77,-49.81 -41.3,-68.48zm-1980.29 566.87c-33.1,-110.32 -153.82,-213.45 -216.23,-171.15 -142.95,96.89 91.28,534.97 235.62,445.79 107.62,-66.48 3.02,-199.97 -19.39,-274.64zm-3583.83 83.71c17.29,-51.83 -9.33,-119.51 -38.59,-158.84 -52.73,29.31 -86.06,70.27 -77.47,142.09 28.96,20.88 88.97,23.49 116.06,16.75zm2531.83 57.44c218.28,-2.52 50.96,-371.24 -33.87,-252.99 -9.11,12.71 21.81,219.74 33.87,252.99zm-7773.82 -4187.86c38.58,-23.01 112.46,-49.06 131.9,-89.83 28.02,-58.74 3.88,-124.3 -44.56,-161.44 -34.39,29.9 -158.14,124.2 -167.51,158.84l1.1 39.25c21.2,15.99 79.07,39.04 79.07,53.18zm-1257.78 -1722.32c34.9,-11.84 68.77,-62.63 97.44,-83.54 -22.23,-53.04 7.9,-66.92 -80.61,-71.06 -35.08,-1.63 -50.81,1.29 -83.31,42.95l66.48 111.65zm748.36 677.16c-3.06,1.21 -119.19,64.28 -122.53,66.6 -93.15,64.56 92.49,160.78 160.3,33.23 13.18,-24.8 14.47,-75.29 -9.27,-97.4 -34.38,-32.01 -23.67,-4.33 -28.5,-2.42l0 -0.01zm6463.44 -13561.21c22.51,-70.08 84.81,-35.37 132.37,-60.61 82.58,-43.83 190.51,-72.55 288.93,-74.82 104.45,-2.41 69.37,-32.45 129.52,-38.04 45.7,-4.24 130.2,3.39 178.41,-1.42 38.97,-3.89 39.55,-14.72 74.6,-19.59 40.5,-5.63 42.91,4.7 87.75,-6.42 168.77,-41.87 396.12,-21.54 573.22,-20.51 76.1,0.43 47.27,26.72 143.85,25.57 127.88,-1.52 201.91,46.96 241.3,51.81 38.78,4.77 45.09,-6.94 87.84,6.31 80.64,25.01 26.08,48.45 115.14,25.37 46.16,-11.95 11.38,2.95 61.8,16.62 36.74,9.95 50.64,-8.23 72.8,24.15 30.1,43.99 -35.07,90.18 -75.9,97.59 19.93,83.49 -28.89,109.95 19.52,197.87 123.64,-4.48 97.06,22.63 177.46,75.41 68.13,44.73 15.5,21.2 93.73,40.79 33.83,8.46 52.28,32.08 73.74,62.36 72.19,-4.04 72.05,13.12 125.54,-24.05 90.95,-63.21 136.96,-24.5 229.47,-54.13 70.39,-22.53 56.77,2.74 109.59,11.4 42.36,6.94 91.97,-7.23 107.33,40.59 17.9,55.76 -84.01,42.84 -175.79,85.03 -39.68,18.24 -36.22,38.01 -31.79,68.89 66.58,22.23 109.96,-8.76 169.84,-19.94 54.69,-10.21 -8.66,-16.48 74.75,-24.97 91.86,-9.35 25.96,11.97 79.97,-30.18 42.54,53.2 145.32,27.41 172.01,93.33 -32.99,25.64 -49,14.87 -83.34,15.51 -57.9,1.1 -20.9,7.99 -67.95,31.68 -33.16,16.7 -141.03,48.48 -153.22,77.55 197.38,4.54 163.92,-28.87 293.87,-41.13 111.83,-10.55 5.54,-12.98 73.46,-43.53 27.99,21.08 25.59,28.58 53.28,40.85 41.32,18.31 17.97,-4.84 59.2,36.92 -50.37,71.52 -95.6,31.88 -191.51,85.79 -54.7,30.74 -41.09,-3.97 -57.97,36.26 -18.88,93.96 49.41,65.58 92.95,41.47 55.14,-30.53 -7.54,-9.62 43.15,-31 71.38,0 159.45,19.13 196.23,-30.52 35.38,63.86 72.34,4.4 126.54,44.58 -29.42,66.33 4.18,18.24 -67.85,52.36 -109.11,51.66 10.3,47.43 -190.3,50.54 -4.67,59.39 -2.53,39.57 42.77,79.28 44.29,-7.2 10.7,-8.74 37.22,-19.83 55.07,-23.03 225.79,-96.13 281.96,-69.01 18.93,9.14 83.9,100.93 84.65,121.15 -92.17,7.16 -123.04,-4.03 -202.96,16.9 -35.64,9.34 -128.35,38.5 -122.49,81.81 95.46,38.82 218.43,-23.62 322.44,-10.65 44.75,5.58 212.52,43.22 201.37,109.46 -86.3,27.14 -111.31,-41.2 -197.77,-25.51 -60.05,10.9 -185.46,25.49 -232.19,46.47 -99.95,44.88 -253.55,180.66 -288.8,286.58 -85.85,257.99 17.22,580.54 249.65,732.49 334.9,218.9 504.99,232.65 900.4,229.64 204.97,-1.56 282.51,-24.29 473.31,-61.17 68.44,-13.23 431.35,-129.32 434.77,-129.31 12.66,8.9 133.08,194.3 201.02,254.65 249.06,221.21 706.07,304.85 1005.96,155.93 169.31,-84.08 138.05,-26.71 270.16,-180.03 42.67,-49.53 70.51,-65.56 103.42,-128.34 29.28,-55.84 19.68,-99.95 46.93,-149.73 54.1,-98.79 51.8,-251.8 11.78,-359.74 -22.73,-61.29 -50.65,-60.2 -78.89,-153.03 -22.64,-74.43 -55.05,-69.24 -88.35,-131.52 64.28,-35.42 188.93,57.56 248.66,96.83 46.34,30.47 25.99,28.32 44.92,59.79 27.8,46.19 15.81,2.29 44.09,50.14 11.74,19.87 14.53,48.84 34.4,70.29 28.18,30.42 25.02,6.79 55.23,39.01 22.42,65.46 4.55,50.34 38.37,118.66 72.22,145.87 58.05,113.49 62.63,315.72 1.43,63.17 -9.75,199.21 -41.41,245.39 -111.56,162.73 -53.27,152.23 -87.5,194.68 -44.33,44.74 -25.9,-11.53 -79.3,36.37 -23.81,21.37 -18.9,33.93 -51.45,53.23 -50.44,29.92 -109.09,42.73 -167.26,42.87 -45.9,-68.29 -54.43,-64.21 -153.94,-49.96 -54.2,64.18 -45.97,128.08 -54.12,208.76 -10.54,104.31 43.78,103.82 71.43,176.05 -33.01,20.51 -112.28,12.51 -121.28,105.51 -14.29,147.53 146.23,131.35 215.07,219.68 32.8,42.1 17.29,46.52 36.31,89.33 23.52,52.97 35,21.94 57.79,66.72 -113.85,84.07 -99.93,41.82 -190.3,174.87 -49.18,72.44 -117.53,152.81 -98.74,264.12l102.3 32.79c-13.12,41.44 -65.2,99.05 -88.04,142.09 -23.82,44.89 -36.17,127.99 -55.48,156.41 -30.65,45.11 -15.54,-5.57 -20.96,71.06 -2.91,41.22 -1.64,71.75 -2.9,111.97 -2.13,67.48 -53.46,120.25 -40.63,154.52 78.83,66.86 226.18,-83.11 280.78,-104.33 46.56,4.28 128.21,44.27 190.76,50.19 41.36,3.92 62.09,-14.51 99.07,-31.93 53.9,-25.4 39.08,-5.6 86.07,-15.94 62.34,-92.53 123.27,-90.91 153.74,-151.7 26.3,-52.45 12.11,-35.51 73.26,-73.37 172.64,-106.9 181.36,137.56 -114.72,231.35 -124.3,39.37 -205.01,60.01 -320.31,118.9 -132.41,67.64 -169.67,120.96 -257.93,234.14 -76.53,98.15 -110.41,231.69 -136.47,337.79l42.96 51.54 109.34 -116.51 93.38 -2.96c-0.84,66.65 -169.19,223.35 -201.74,297.47 -29.28,66.7 -39.04,43.32 -72.78,94.47 -40.08,60.73 -59.77,193.4 -79.59,265.93 -15.41,56.4 -31.71,75.33 -13.31,119.05 41.13,97.77 -60.08,8.77 27.35,99.37 93.1,-68.6 62.86,-49.92 81.27,-112.68 30.15,-1.4 62.35,1.71 92.72,-1.7 54.73,-6.16 18.23,-9.88 62.11,-18.78l10.65 166.84c57.15,-1.93 80.78,-33.19 167.06,-51.9 -23.38,127.05 -160.89,183.83 -253.59,392.82 -55.21,124.48 -117.9,358.58 -72.55,480.29 41.5,-14.6 -23.91,-24.9 56.88,-27.07 51.05,101.48 -16.14,114.51 -39.33,193.24 -64.68,219.53 -63.42,279.86 -54.31,505.2 3.71,91.69 -18.35,154.69 29.23,183.45 57.6,-47.78 -21.15,-28.38 48.07,-56.9 57.62,-23.73 -1.36,25.8 51.79,-22.55 30.24,-27.52 73.46,-91.53 92.19,-93.45 22.26,66.71 4.48,223.15 9.67,303.48 5.73,88.87 -6.98,180.39 -42.5,257.43 -45.82,99.38 -120.71,439.46 -136.93,554.66 -8.92,63.37 14.61,109.18 12.45,160.88 -1.89,45.37 -27.04,49.79 -25,140.45 2.66,118.28 -4.81,471.9 6.41,554.56 6.18,45.56 19.84,47.09 20.44,107.91 0.26,26.03 -3.64,88.6 2.14,108.43 33.76,115.86 26.04,171.78 48.25,283.57 19.02,95.77 44.93,192.26 66.52,289.29 43.19,194.17 109.79,353.99 172.17,540.12 42.19,125.9 -41.85,158.46 -30.9,280.7 44.79,499.97 107.22,195.49 103.53,589.45 -1.19,126.37 -32.13,155.64 -147.41,157 -92.9,-64.12 -86.6,-132.62 -83.97,-241.78 2.09,-86.78 29.28,-61.17 32.79,-134.74 1.7,-35.81 2.78,-124.36 -0.3,-158.3 -7.38,-81.41 -99.04,-256.38 -172.45,-310.06 -79.88,-58.4 -75.9,16.09 -89.35,39.53 -67.37,-47.44 -36.36,-45.78 -82.31,-97.29 -114.28,-128.07 -131.92,-73.47 -263.47,-92.49 -48.15,-6.97 -61.45,-53.51 -125.97,-31.56 -39.44,49.35 -15.39,231.8 45.11,290.4 43.27,41.89 31.29,63.61 91.37,107.8 39.14,28.79 63.08,58.78 41.99,105.01 -77.62,-31.97 -113.5,-137.32 -188.12,-40.4 12.86,49.55 28.33,23.27 31.49,92.51 1.59,34.92 -3.54,62.4 -2.45,98.44 4.96,164.15 -75.84,109.11 -7.85,591.53 7.66,54.31 50.05,217.64 91.14,255.19 45.29,41.37 16.34,-5.13 44.49,51.39 21.36,42.86 50.71,79.38 48.03,138.2 -6.17,135.3 33.93,159.66 -65.64,220.17 -25.82,15.69 -30.04,17.49 -63.87,-7.16 -1.48,-51.47 28.35,-68.99 29.77,-143.65 3.24,-170.64 -147.39,-308.32 -207.74,-301.16 -13.67,19.23 -12.53,51.3 -11.94,81.24 1.6,81.2 8.54,17.47 -10.85,71.88 -14.44,40.51 11.82,120.24 -63.66,126.87 0,-96.65 -4.61,-140.25 22.71,-228.57 13.99,-45.25 10.04,-178.55 0.52,-206.55 -5.56,-16.32 -27.25,-54.46 -37.12,-85.76 -27.17,-86.14 -23.48,-177.08 -140.83,-191.31 -54.8,47.03 -34.83,89.21 -98.96,144.4 -237.38,204.3 -144.72,367.22 -185.84,448.24 -54.52,-9.53 -32.16,-39.21 -83.96,-67.83 -51.92,28.39 -95.73,99.53 -113.38,151.65 53.76,78.22 38.08,37.38 30.6,140.51 -7.27,100.21 -70.42,139.58 -4,275.14 25.83,52.73 8.06,37.69 13.42,91.28 4.41,44.07 56.23,95.43 62.75,146.65 12.72,100.04 8.18,276.73 -39.55,359.4 -40.13,69.49 10.57,51.5 -49.11,127.23 -22.15,28.11 -80.45,88.58 -110.8,102.84 -141.2,-98.15 85.46,-151.01 120.63,-271.17 13.97,-47.69 -1.81,-150.17 -4.55,-203.4 -2.99,-58.11 -7.4,-159.97 -91.85,-139.75l2.17 93.44 -76.29 55.11c1.03,-89.14 17.36,-234.47 -63.71,-281.79 -76.03,30.91 -76.19,152.68 -133.92,213.38 -153.55,161.45 -84.03,75.39 -184.04,150.98 -277.19,209.52 -316.77,586.33 -358.68,646.4l-212.31 269.6c-32.3,22.38 -54.92,35.13 -87.07,61.87 -39.62,32.96 -41.96,63.59 -82.47,79.7 -35.56,14.15 -244.76,178.32 -276.87,207.4 -52.47,47.5 -55.26,35.04 -100.23,67.29 -25.28,18.14 -47.35,57.66 -80.82,86.69 -51.86,44.97 -56.48,32.42 -106.61,60.91 -45.29,25.75 -39.11,56.91 -79.9,87.6 -191.99,144.53 -169.33,154.55 -308.12,341 -90.04,120.95 -154.71,278.03 -284.75,367.05 -8.64,5.91 -98.42,162.93 -125.91,186.5 -69.84,4.61 -78.29,-32.05 -139.11,-56.63 -61.03,-24.66 -91.98,-9.14 -135.2,-24.73 -156.55,-56.46 -159.99,-149.41 -283.4,17.1 -46.45,65.96 -36.42,112.83 -51.12,188.1 -23.01,117.84 -111.23,184.49 -111.23,254.39 -50.32,-1.11 -168.28,-78.22 -219.69,-104.87 -46.5,-22.13 -80.82,2.81 -130.21,-37.32 -33.31,-27.07 -48.11,-64.97 -91.87,-48.3 -16.59,36.77 -3.47,29.35 -8.56,64.74 -12.42,86.22 -1.32,7.3 -21.83,52.23 -34.82,76.23 28.17,23.5 -28.45,85.11 -50.32,54.75 -45.1,98.59 -103.37,169.66 -226.02,275.71 -221.34,367.59 -393.3,166.91 -30.68,-35.81 -63.2,-95.71 -93.16,-137.18 -69.1,-95.64 -140.46,-193.69 -146.11,-314.54 -37.08,-12.86 -76.84,-43.6 -105.16,-54.4 -70.42,55.9 -320.78,147.18 -375.31,191.87 -131.07,-107.7 -110.95,-120.75 -198.69,-243.53 -26.82,-37.54 -72.83,-92.42 -92.98,-126.88 -34.17,-58.43 -29.12,-106.74 -75.91,-142.86 -71.3,-55.03 -214.47,120.32 -251.79,141.8 -113.28,65.18 -206.55,23.61 -230.21,-106.65 -21.22,-116.77 -261.34,-423.6 -355.23,-507.72 -213.81,-191.53 -281.32,-211.78 -516.55,-352.44 -244.12,-145.97 -278.34,-241.24 -409.32,-470.12 -93.9,-164.07 -183.52,-421.83 -299.42,-569.55 -73.22,-93.32 -97.69,-155.06 -198.8,-240.93 -62.84,-53.39 -195.58,-122.02 -256.25,-173 -81.38,-68.41 -164.82,-123.87 -229.64,-210.08 -49.45,-65.76 -94.82,-78.4 -114.36,-105.49 -30.56,-42.38 -27,-118.48 -103.42,-91.53 -41.91,49.74 5.54,51.08 -35.04,112.02 -32.15,48.31 -11.67,32.55 -17.35,115.75l-71.2 -26.01c-57.34,74.48 -39.68,23.35 -38.08,190.3 1.43,151.03 -20.27,116.42 31.69,162.58 52.1,46.3 44.26,90.62 85.64,145.23 36.13,47.68 107.68,72.95 111.25,141.79 -31.25,18.23 -56.42,25.31 -90.75,-4.37 -142.92,-123.62 -70.13,-72.15 -157.46,-220.26 -13.69,-23.2 -49.39,-45.67 -58.39,-76.09 -14.21,-48.12 17.08,-15.12 -16.29,-89.37 -24.5,-54.52 -11.5,-172.1 -20.92,-242.49 -10.3,-76.95 37.17,-125.04 78.69,-177.24 50.06,-62.96 35.08,-98.16 73.27,-168.06 51.17,-93.63 48.43,-23.18 58.75,-182.72 5.32,-82.32 -14.57,-19.64 -32.41,-88.86 -18,-69.79 22.16,-48.4 -63.71,-63.51l-13.24 -75.74 -98.93 24.93c-21.99,-94.97 14.7,-208.4 -21.46,-295.69 -48.69,-117.57 -88.21,-82.37 -88.15,-216.35l-112 3.87c-23.99,30.91 -19.48,144.12 -115.26,116.22l-13.39 -119.59c-47.93,-19.78 -71.04,27.45 -78.6,65 -8.78,43.63 -16.34,57.36 -32.67,107.2 -16.46,50.23 -14.06,24.5 -25.34,55.47 -10.51,28.85 4.5,2.79 -5.15,41.23 -12.72,50.7 -9.6,-6.87 -23.23,47.56 -29.39,117.34 45.34,200.61 56.54,266.87 13.79,81.57 20.95,198.09 -58.38,224.12 -77.25,-4.16 -14.55,0.36 -60.96,-24.67 -20.36,-10.98 -25.96,-6.76 -49.68,-23.48 -15.66,-11.02 -50.38,-83.6 -54.9,-102.16 -20.52,-84.28 -2.11,-180.6 43.78,-244.08 52.79,-73.01 62.28,-127.71 95.83,-196.92 24.37,-50.31 65.01,-180.51 40.84,-230.7 -26.41,-54.87 -14.34,-59.04 -27.35,-109.06l-39.26 -118.29c-15.11,-83.43 14.03,-37.99 -52.17,-104.87 -48.54,-49.02 -31.62,-52.36 -36.12,-121.11 -24.15,-368.99 6.92,-243.85 40.39,-310.51 8.01,-15.96 7.32,-23.49 21.44,-52.12 42.48,-86.16 -28.17,-89.52 -79.63,-143.65 -46.41,31.89 -148.7,70.87 -179.88,103.81 -52.05,54.98 -56.17,128.38 -105.28,177.06 -33.75,-34.12 -46.74,-97.11 -62.63,-120.44 -140.12,75.53 -126.84,197.49 -199.49,303.45l-31.42 -85.25c-33.2,2.16 -29.84,9.08 -51.78,10.96 -33.42,2.88 0.48,-9.98 -29.22,-2.77 -24.07,60.13 -54.16,102.45 -72.23,149.21 -93.12,241.05 96.65,359.86 -11.7,469.78 -65.09,-5.26 4.06,2.39 -27.61,-13.58 -22.95,-11.57 -70.94,-13.25 -87.54,-27.97 -40.27,-60.21 -40.55,-251.03 -27.02,-319.73 9.64,-48.94 89.17,-163.26 117.13,-218.65 66.77,-132.28 147.46,-411.92 89.15,-551.72 -56.57,-135.65 -113.87,-86.6 -71.64,-237.37 24.71,-88.18 77.37,-155.97 80.91,-264.15 2.69,-82.29 44.03,-202.38 73.21,-280.46 44.99,-120.37 26.38,-273.94 20.89,-399.47 -4.4,-100.53 16.77,-97.62 22.41,-150.6 0.17,-1.67 -21.87,-85.9 -22.08,-121.11 -1.91,-312.95 20.58,-519.51 -44.35,-819.19 -39.67,-183.14 -41.78,-387.61 -134.25,-554.23 -21.75,-39.22 30.99,-187.78 18.64,-289.59 -10.87,-89.51 -19.17,-207.65 -59.14,-282.67 29.28,4.21 80.57,46.49 156.45,59.83 100.33,17.64 52.99,64.81 146.27,42.18 0,-143.46 -35.86,-131.57 -51.76,-220.19 -2.8,-49.89 9.99,-181.31 10.22,-251.28 0.47,-142.38 -14.68,-110.46 -63.67,-208.55 -24.49,-49.04 3.42,-51.47 -47.74,-88.34 -33.94,-24.47 -43.92,-24 -46.83,-80.53 69.36,-38.58 80.29,25.26 134.07,56.87 33.14,19.48 143.23,21.64 161.19,-12.09 15.98,-40.3 -156.7,-230.4 -153.04,-399.05 3.22,-148.73 -254.01,-273.39 -253.79,-323.4 65.77,-44.73 126.78,52.63 204.49,-25.95 -11.71,-60.95 -72.39,-59.15 -37.11,-110.02 50.48,59.24 12.47,49.13 105.59,53.62 80.38,3.87 26.8,25.45 58.69,81.34 99.14,-3.37 62.47,-22.7 62.25,-62.53 -0.13,-23.17 11.95,-89.9 11.74,-137.32 -0.77,-172.33 -39.28,-346.33 -140.93,-487.39 -40.44,-56.11 -30.04,15.01 -63.72,-84.35 -19.17,-56.54 -49.08,-13.17 -45.84,-86.3 33.9,-40.18 97.45,-3.14 158.64,-40.1 45.94,-115.37 -152.36,-293.4 -224.88,-367.25 -93.95,-95.68 -97.54,-59.31 -200.52,-103.1 -89.28,-37.96 -113.69,-84.11 -194.28,-109.34 -55.87,-17.48 -130.66,-91.66 -164.51,-139.11 -147.92,-207.36 -66.78,-92.89 -101.61,-181.93 -13.71,-35.07 -44.09,-89.75 26,-98.14 60.3,-7.22 53.25,30.41 78.58,67.71 41.78,61.49 26.72,56.5 50.13,107.17 24.22,52.41 6.21,1.77 35.26,36.34 32.49,38.67 -15.21,-6.86 13.26,41.67 53.1,11 38.51,18.12 103.67,31.74 78.98,16.5 6.7,24.27 78.96,27.71 158.19,7.53 43.12,-8 152.76,66.31 28.39,-46.44 30.11,-24.45 22.8,-64.78 -3.3,-18.24 -16.81,-33.58 -0.17,-59.29 73.27,-1.38 21.92,56 131.54,53.84 51.74,-1.03 118.06,-8.15 177.55,-1.37 17.37,41.22 14.97,74.96 57.38,87.48 29.66,8.75 61.05,-13.62 70.47,-37.33 0.63,-76.19 -22.74,-22.05 -29.8,-87.01 -7.77,-71.34 -2.09,-159.31 -35.26,-224.84 -148.58,-293.46 -93.04,-108.61 -162.92,-224.46 -50.95,-84.46 -135.95,-21.71 -100.71,-147.79 71.45,-23.74 100.16,22.79 146.91,43.43 54.57,-65.76 54.69,-42.43 30.81,-128.81 -108.8,-393.52 -152.47,-271 -213,-392.52 36.14,-44.51 92.89,-58.34 138.06,-122.08 63.26,-89.3 64.86,-91.64 -2.42,-160.59 30.41,-86.56 110.22,-101.35 107.8,-196.77 -5.65,-222.05 36.76,-271.75 -104.79,-281.64 -86.35,-6.04 -32.06,-1.38 -87.34,17.2 -67.7,22.74 -108.26,-51.48 -154.34,-77.01 -109.94,-60.9 -60.29,1.34 -144.04,-117.7 -30.79,-43.77 -85.67,-103.26 -100.71,-150.57l-42.73 -324.93c-1.63,-58.82 21.76,-113.64 42.42,-157.33 18.35,-38.8 3.19,20.99 19.68,-43.14 17.18,-66.79 -11.19,-22.24 42.6,-83.05 46.45,-52.5 77.78,-74.51 97.85,-153.43 139.94,-17.47 55.15,-40.33 134.25,-75.15 51.88,-22.83 89.23,-53.35 156.31,-53.07 0.25,79.34 -21.99,69.37 -54.17,124.58 -59.99,102.96 -35.36,364.42 -39.69,488.03 -3.63,103.21 1.13,86.28 67,147.09 52.78,48.72 22.22,60.37 101.51,107.5 53.36,31.72 187.73,140.61 239.78,158.52 42.37,14.58 120.99,12.84 187.33,32.31 212.55,62.4 75.46,55.86 290.14,-4.64 122.94,-34.63 308.32,-21.96 443.49,-184.46 38.7,-46.54 81.97,-57.2 104.92,-104.59 23.73,-49.01 25.5,-105.01 68.84,-138.79 10.5,-1.79 358.17,119.81 416.84,134.44 179.91,44.85 323.89,56.72 508.57,56.83 464.04,0.26 464.7,-26.67 852.95,-246.73 239.23,-135.61 385.7,-466.47 297.82,-736.49 -13.21,-40.58 -81.8,-145.41 -121.06,-161.65 -114.84,-47.51 -69.04,-85.66 -137.1,-102.66 -25.22,-6.3 -223.86,-31.01 -251.36,-30.91 -51.12,0.17 -153.44,29.68 -195.76,11.44 20.13,-13.15 66.5,-35.36 89.45,-37 81.55,-5.83 16.61,1.44 61.76,-35.72 61.45,-2.68 139.13,23.88 145.9,-49.76l-208.93 -14.9c-42.11,-147.01 333.39,11.55 325.32,-153.69 -37.09,-50.39 -72.9,-23.39 -129.69,-40.6 -34.11,-170.52 342.01,19.71 268.22,-163.91 -61.65,-21.86 -104.67,18.22 -138.96,-28.85 10.71,-39 141.03,-59.13 188.98,-61.01 62.93,-2.49 181.34,10.21 234.93,-5.82 45.14,-136.94 -127.63,-47.63 -191.85,-89.92 37.04,-47.09 155.15,-66.97 213.13,-69.04 90.78,-3.26 119.78,43.1 208.17,18.84 19.53,-83.79 -99.71,-76.41 -155.44,-89.86 6.64,-58.14 65.07,-48.72 109.2,-48.69 133.1,0.12 60.56,10.93 123.21,35 66.75,-5.05 209.05,4.85 261.22,31.93 76.35,39.65 298.4,34.54 347.44,-46.3 68.53,-112.97 43.38,13.25 277.6,-150.12 3.93,-135.13 -25.63,-75.51 -56.37,-152.37 -45.92,-114.81 -49.58,-52.88 -111.67,-97.23zm-2170.91 2044.65c-167.94,37.17 -261.18,34.71 -430.97,22.03 -177.29,-13.23 -192.47,-63.72 -334.12,-117.62 -363.05,-138.13 -81.96,-274.05 -382.59,-569.37 -440.3,-432.53 -853.7,-483.78 -1449.78,-372.54 -175.36,32.73 -538.71,186.07 -685.64,288.04 -117.06,81.24 -439.86,355.88 -520.53,463.61 -143.32,191.37 -255.61,385.71 -347.17,607.26 -38.31,92.7 -109.83,238.59 -132.61,328.07 -17.24,67.7 -20.65,130.64 -41.86,201.19 -16.77,55.73 -44.62,114.67 -54.13,171.41 -27.28,162.87 0.63,564.59 1.93,753.37 1.03,147.97 -7.57,281.16 15.4,428.92 21.5,138.34 62.98,263.67 84.08,408.93 25.07,172.55 189.38,536.73 254.68,731.23 73.89,220.11 194.94,455.38 275.59,685.85 85.16,243.38 161.62,479.27 252.13,722.7 72.84,195.9 163.93,574.27 165.6,777.26 1.25,153.04 52.91,263.8 61.95,412.03 8.87,145.59 -37.99,289.71 -50.31,435.67 -15.62,185.06 -66.81,211.38 -96.85,356.81 -30.79,149.05 -77.88,187.93 25.73,318.97 23.66,2.24 112.9,-0.75 128.69,-5.36 39.59,-11.55 58.27,-55.29 92.05,-81.02 31.28,-23.83 51.54,-16.9 94.27,-64.48 116.96,-130.28 109.04,98.92 140.08,166.91 23.84,52.22 5.25,31.45 15.6,78.65 13.54,61.75 39.94,14.77 29.28,127.79 -5.82,61.78 -11.18,138.46 3.23,196.25 13.53,54.24 16.66,6.2 4.63,62.19 -9.91,46.04 56.97,158.87 -0.02,409.17 -44.11,193.7 -31.01,406.78 -103.97,607.96 -148.19,11.5 -61.72,-50.44 -196.41,-61.75 -92.04,-7.72 -71.81,-31.45 -239.73,-18.42 -12.98,72.46 -3.05,53.29 30.66,124.06 21.3,44.71 21.7,63.03 34.5,107.54 14.23,49.48 35.14,72.27 42.94,128.48 9.68,69.63 4.63,92.92 24.01,167.25 31.45,120.49 -24.32,175.3 -19.89,305.91 6.51,191.58 -33.03,377.12 2.35,567.61 17.59,94.69 -8.19,164.74 13.75,258.19 27.95,118.99 125.63,455.22 175.83,556.39 67.87,136.77 189.57,309.75 270.83,451.57 213.52,372.62 369.38,478.26 680.12,760.39 40.16,36.46 153.23,136.57 181.6,168.29 63.64,71.2 98.19,123.87 171.78,194.56 63.11,60.64 358.87,245.79 436.32,272.07 81.45,27.64 129.79,93.63 211.79,136.4 83.9,43.76 133.54,80.82 225.03,120.91 223.78,98.04 472.93,259.46 724.86,364.39 419.65,174.8 782.67,371.14 1118.22,682.55 95.73,88.84 266.68,283.72 325.78,396.63 37,70.71 91.88,173.84 121,245.44 63.48,156.14 39.84,340.31 228.28,247.48 37.57,-18.5 77.98,-32.41 115,-52.52 54.27,-29.49 141.66,-122.73 188.85,-130.32 5.67,4.96 174.78,267.72 216,317.11 83.72,100.34 133.63,247.14 289.98,170.4 97.89,-48.04 227.64,-213.91 323.25,-97.23 136.34,166.41 17.44,91.79 266.51,283.33 327.05,251.48 367.77,245.12 689.31,-14.2 137.29,-110.71 158.05,-141.24 262.5,-277.74 90.1,-117.74 233.36,26.21 349.44,59.92 180.62,52.45 142.99,-155.22 212.35,-275.79 70,-121.66 103.7,-261.88 278.4,-191.5 97.27,39.18 247.59,179.15 334.36,152.13 102.1,-31.79 137.25,-242.48 198.32,-344.36 303.69,-506.61 617.77,-752.53 1170.03,-969.18 579.82,-227.47 860.55,-408.8 1349.9,-782.48 349.77,-267.09 446.84,-199.61 918.83,-661.98 98.23,-96.22 153.25,-183.46 267.3,-277.52 331.66,-273.53 670.91,-911.83 765.9,-1327.74 82.31,-360.39 -32.15,-1064.49 47.85,-1321.04 27.72,-88.91 199.57,-298.28 50.78,-339.21 -31.87,0 -71.14,-5.67 -100.7,3.98 -57.98,18.95 14.57,27.52 -77.28,27.43 -21.7,4.36 -20.08,32.93 -35.92,48.13 -0.36,0.35 -48.66,29.63 -54.72,33.83 -44,-59.77 -45.88,-154.68 -63.75,-231.18 -20.41,-87.32 -60.39,-80.21 -64.61,-239 -2.25,-84.51 -29.41,-31.5 -32.54,-167.06 -3.27,-142.1 4.48,-186.43 -47.35,-308.78 -13.26,-31.31 -3.55,-41.17 -13.34,-62.85 -14.22,-31.48 -28.48,-17.29 -29.03,-65.78l-4.24 -556.81c-0.24,-183 -2.14,-92.36 26.62,-172.97 16.83,-47.17 -16.13,-118.53 14.15,-164.92 21.47,-32.87 28.66,-1.22 49.12,4.97 63.55,19.23 27.58,-74.62 171.99,50.13 97.62,84.31 53.05,22.52 123.5,53.97 97.34,43.45 24.6,41.87 169.66,40.5 139.98,-106.9 49.89,-151.34 -23.92,-261.22 -136.05,-202.52 -124.5,-898.09 -93.37,-1154.32 28.86,-237.56 96.95,-543.92 152.4,-779.38 67.97,-288.61 118.05,-448.27 231.24,-721.48 308.62,-744.91 499.93,-1399.58 604.31,-2194.89 45.93,-349.92 2.84,-534.7 -13.37,-871.07 -17.59,-365.29 -271.46,-1070.54 -548.27,-1320.62 -76.5,-69.12 -166.82,-198.52 -230.27,-240.87 -53.18,-35.5 -95.18,-51.15 -144.66,-96.13 -44.98,-40.88 -78.44,-76.88 -131.38,-109.43 -223.31,-137.25 -428.78,-207.23 -684.48,-258.27 -154.43,-30.82 -658.45,29.09 -820.41,76.11 -181.6,52.73 -444.75,259.27 -499.22,446.2 -27.01,92.68 -66.06,231.1 -134.34,302.51 -30.96,32.36 -272.48,142.7 -323.24,158.07 -107.53,32.55 -272.4,51.01 -392.21,78.32 -115.47,26.3 -297.92,48.96 -405.86,0.09 -18.73,-72.35 85.01,-103.57 123.6,-216.74 47.06,-137.95 41.43,-171.56 9.34,-308.05 -54.78,-233.01 -124.79,-320.29 -275.17,-499.51 -280.95,-334.85 -1076.61,-1011.92 -1555.52,-758.58 -142.71,75.5 -139.75,-45.65 -119.02,-148 20.77,-102.56 -46.64,-188.84 -130.98,-239.12 -377.85,-225.27 -914.68,-234.91 -1341.52,-207.35 -289.32,18.68 -1023.76,38.55 -1198.06,303.19 -191.68,291.03 165.47,458.92 -247.76,353.4 -216.29,-55.23 -429.33,-144.5 -637.28,-26.52 -241.26,136.87 -658.62,551.52 -845.61,767.03 -53.38,61.52 -303.89,419.81 -322.98,480.85 -11.05,35.32 -8.07,239.65 0.9,279.69 24.79,110.65 127.36,138.6 92.73,224.6l-0.03 0zm1417.12 5785.12c-15.56,-88.62 -30.91,-429.31 -7.29,-502.95 50.56,-15.39 70.04,8.81 120.75,14.63 64.42,7.4 59.22,-9.11 108.06,-15.63 124.77,108.06 380.8,603.07 381.18,603.57 20.18,26.48 26.25,15.72 48.69,45.53 14.51,19.27 17.67,37.82 34.26,59.96 35.85,47.86 157.88,170.21 167.99,217.08 -85.86,56.92 -197.36,55.59 -292.29,86.08 -73.03,23.45 -173.76,-103.05 -189.83,-156.53 -32.57,-108.43 -60.4,-151.48 -142.43,-234.48 -63.02,-63.76 -14.22,-51.44 -108.54,-79.89 -94.85,-28.61 -9.39,-37.37 -120.55,-37.37zm-1262.76 -4070.8c-20.34,-5.65 -82.81,-61.04 -111.35,-82.19 -100.62,-74.56 -41.88,-55.26 -91.76,-117.63l-108.54 -0.6c0.28,73.19 -8.93,75.45 38.21,112.8 83.06,65.81 -14.02,59.97 207.24,253.42 61.22,53.53 -10.55,44.47 55.94,90.62 70.47,48.92 81.1,131.54 136.1,178.01 47.43,40.09 54.74,23.58 54.83,102.2 -173.47,16.49 -289.15,-33.79 -460.68,-31.37 -40.44,0.57 -206.71,-20.26 -237.74,-34.49 -65.46,-30.01 -9.81,-77.96 -128.35,-143.86 -236.95,-131.74 -347.1,182.5 -545.19,199.31 -130.93,11.1 -144.69,-58.17 -216.65,-49.99 -84.62,83.67 40.02,262.52 114.46,320.14 24.85,19.23 121.02,62.46 157.1,73.91 59.34,18.83 137.89,-5.46 192.55,-34.29 65.55,-34.57 94.92,-36.82 158.89,-92.39 88.38,-76.78 236.9,-157.78 347.13,-133.34 72.76,16.14 133.25,7.23 190.13,51.11 -12.48,41.6 -16.12,19.08 -28.45,57.23 -4.24,13.12 -10.71,49.5 -15.46,68.18 -23.05,90.94 -109.76,339.55 -53.01,369.36 98.05,46.41 144.66,-187.01 193.22,-260.56 102.53,-155.32 48.15,-199.68 270.01,-171.71 194.98,24.58 199.63,19.17 286.31,195.74 21.36,43.52 22.73,25.79 48.09,67.07 13.06,21.25 31.69,61.65 44.03,81.6 23.36,37.79 99.8,92.32 84.37,141.19l-221.63 8.41 -1.2 135.38 322.4 -0.53c36.9,27.6 134.36,185.06 155.88,234.24 29.19,66.73 22.7,72.13 78.79,120.14 43.07,36.87 67.81,62.45 82.32,118.41 -57.8,43.06 -73.17,18.85 -156.68,-2.17 -63.92,-16.1 -59.46,-18.28 -107,-50.04 -30.53,-20.4 -17.28,-3.55 -42.62,-20.21 -54.98,-36.14 -45.13,-186.99 -136.79,-302.93 -181.93,-17.18 -44.52,150.68 -51.45,278.19 -74.51,5.92 -248.36,-35.8 -334.92,-42.75 -14.38,-1.15 -52.2,4.15 -79.1,0.53 -31.65,-4.26 -57.08,-20.03 -80.16,-25.49 -66.53,-15.71 -107.32,-3.06 -174.19,-2.84 -91.9,0.29 -208.48,-65.65 -259.18,-139.5 -19.8,-28.85 -51.96,-79.16 -84.09,-114.83 -63.5,-70.49 -29.27,-77.18 -67.26,-131.66l-106.84 8.22c-23.36,79.09 126.31,270.32 151.05,334.94 -49.75,31.59 -364.55,11.33 -457.45,8.85 -119,-3.19 -61.89,-35.81 -123.53,-97.92 -82.91,-83.55 -46.34,-116.97 -77.68,-173.6 -224.05,8.27 -9.71,247.13 8.42,333.35 -51.6,46.25 -171.16,77.48 -209.33,128.95l32.86 91.62c77.28,7.97 112.72,-61.58 205.09,-85.75 57.62,-15.07 193.1,-35.47 237.83,0.31 -0.91,14.62 -71.05,190.59 -101.28,220 -39.34,38.3 -50.12,28.76 -82.52,85.24 -4.87,8.47 -25.95,43.98 -28.52,51.46 -11.8,34.42 15.48,15 -11.48,54.87 -106.65,53.19 -136.61,-53.14 -284.58,92.33 -58.02,57.04 -42.41,4 -74.7,113.76 -15.07,51.23 -38.39,96.54 -25.27,157.7 2.2,10.24 49.89,132.07 53,135.96 5.81,7.25 86.73,71.64 107.25,81.19 150.09,69.83 240.05,-9.39 287.55,5.32 120.01,37.16 190.66,43.97 284.72,-49.83 30.64,-30.54 80.61,-60.61 99.68,-88.77 53.16,-78.46 61.79,-213.43 9.61,-297 -174.46,-279.36 -237.77,-143.25 -350.44,-152.11 -4.17,-73.82 31.78,-58.43 86.7,-119.11 45.63,-50.41 26.92,0.06 53.16,-51.53 53.92,-106.04 96.74,-301.16 257.6,-248.02 184.25,60.87 235.09,-23.88 332.45,2.23 43.9,11.76 135.08,24.64 165.7,44.3 89.51,57.47 94.63,21.89 151.37,57.57 22.92,31.61 -94.42,222.9 -133.91,351.77 -21.55,70.34 -2.66,74.88 -70.01,107.99 -125.27,61.58 -38.8,45.61 -225.03,89.04 -84.62,19.73 -197.8,81.06 -110.21,179.27 21.09,5.75 225.29,-82.84 305.44,-86.02l-114.71 188.04c91.21,116.34 102.81,46.27 163.89,-47.36 127.05,-194.76 105.9,-109.16 180.18,-353.76l101.03 -254.94c27.12,-54.38 37.37,-54.36 61.52,-116.46 13.45,-34.57 30.83,-96.7 59.41,-118.58 103.77,-46.58 262.05,86.36 346.24,125.8 34.38,16.1 57.98,12.8 93.14,32.49 37.91,21.23 35.56,27.2 83.69,41.94 40.55,12.43 171,21.88 197.29,9.84l1.6 317.2c-118.59,60.93 -257.34,46.77 -274.32,220.47 -7.51,76.77 27.73,115.5 -9.58,192.62 -105.1,217.26 20.71,336.76 6.67,393.48 -26.46,106.91 -108.08,261.01 59.38,351.11 94.98,51.12 128.65,19.73 215.07,36.2 20.39,60.72 26.89,542.12 9.92,609.83 -84.81,59.23 -137.97,3.27 -243.39,133.52 -102.54,126.69 -39.46,183.48 -16.93,288.26 -36.27,103.55 -86.01,80.93 -54.65,247.28 32.8,173.91 -14.93,117.41 -37.12,255.33 134.24,250.47 239.96,161.72 310.01,225.28 15.69,58.41 -15.49,73.92 -17.95,141.8 -2.82,77.82 17.21,86.84 22.55,146.83 12.52,140.42 -12.96,176.51 -26.19,298.79 -26.28,243.03 -80.95,274.96 -283.54,407.48 -68.75,44.98 -118.8,13.15 -239.33,106.17 -183.1,141.32 -208.43,197.71 -281.8,409.2 -34.05,98.14 -126.96,146.29 -67.28,231.45 128.05,13.84 152.25,-162.31 215.43,-205.32 10.89,127.37 -41.98,148.4 -38.2,216.3 202,16.64 149.49,-163.98 193.86,-258.31l18.5 97.48c175.76,6.32 19.87,-319.82 203.38,-316.34 -11.15,69.18 -115.22,345.43 -177.04,384.46 -106.15,67.02 -216.13,239.15 -180.68,371.09 122.21,37.31 110.71,-73.64 163.05,-158.39 20.93,-33.88 138.01,-162.24 164.61,-180.88 30.1,337.96 -111.36,401.46 -116.06,492.97 153.3,84.22 255.31,-221.36 278.28,-341.23 11.11,-57.96 -11.4,-159.95 15.77,-204.03 21.66,33.79 28.27,177.16 42.95,199.9 87.24,-42.49 102.55,-239.19 77.54,-330.08 -22.22,-80.74 -46.17,-90.03 -82.82,-148.81 -30.04,-48.17 -12.4,-145.16 45.34,-160.87 21.93,14.72 136.34,208.82 152.96,292.9 20.34,102.91 -75.01,200.94 -121.03,293.26 -31.86,63.91 -166.31,287.08 -49.29,303.51 79.84,11.2 55.74,-69.92 91.94,-135.22 19.31,-34.82 71.48,-112.1 105.99,-125.51 32.29,59.51 -32.12,140.83 -19.87,226.74 159.62,22.94 97.44,-88.59 151.51,-119.52l-3.7 160.33c65.42,76.05 134.09,46.56 133.18,-47.65 -5.61,-578.03 -130.41,-393.26 -137.33,-691.71 67.08,33.18 107.54,57.72 166.12,106.09 36.91,30.48 91.71,152.85 96.04,188.38l-81.63 205.04c36.32,28.56 65.3,83.82 114.48,26.66 34.28,-39.83 25.39,-113.27 60.95,-139.16 92.19,66.92 16.01,251.45 22.87,333.7 170.67,9.55 166.2,-292.38 106.45,-410.31 -46.92,-92.61 -79.41,-104.69 -123.92,-179.7 -49.3,-83.08 -35.26,-112 -120.34,-181.01 47.34,-16.25 88.98,-8.79 128.26,26.51 28.4,25.53 85.5,62.34 99.77,78.23 61.3,68.2 -35.55,241.15 75.58,269.9 67.06,-5.13 41.6,-61.66 94,-106.73 135.3,109.08 70.32,357.34 14.79,498.65 -24.52,62.41 -72.46,81.46 -64.45,150.04 88.68,65.56 153.63,-31.95 189.24,-108.99 38.99,-84.32 54.89,-179.43 87.58,-268.39 88.7,-35.73 97.19,34.3 189.4,-9.42 61.13,-28.99 59.76,-91.44 31.63,-142.44 -138.16,2.5 -151.62,7.45 -214.28,-120.75 -37.73,-77.19 -86.54,-152.37 -155.73,-200.23 -51.29,-35.49 -382.68,-283.37 -401.07,-310.86 -149.69,-223.77 -187.35,-188.27 -227.54,-484.4 -12.34,-90.89 -20.52,-527.71 4.7,-590.7 101.43,-39.99 282.39,60.86 391.78,-62.08 72.68,-81.68 545.94,-29.41 687.02,-33.68 68.86,-2.09 152.27,-5.34 221.23,-10.04 226.17,-15.42 244.75,199.93 313.37,228.75 132.28,-32.73 115.1,-395.78 201.62,-432.43 46.19,22.08 130.06,355.83 400.59,512.04 156.37,90.29 382.4,302.05 500.7,431.09 57.68,62.91 290.94,257.45 310.23,317.97 -0.04,38.05 -260.94,160.41 -305.71,174.92 -131.42,42.62 -237.38,73.36 -373.35,97.8l-387.75 72.93c-453.15,64.15 -867.98,455.53 -1058.14,857.76 -57.21,121.03 -237.5,188.59 -250.23,241.83 8.68,7.49 168.9,73.92 190.85,79.52 78.92,20.15 178.71,-14.8 246.82,-26.51 -12.12,309.75 -71.7,258.3 -91.74,322.07 231.29,69.66 293.51,-6.73 441.75,-81.72 49.74,40.76 -3.77,37.89 89.47,73.51 82.34,31.47 32.26,40.73 103.96,74.02 81.27,37.73 152.21,71.4 219.46,136.5 10.61,105.6 -140.43,255.62 -212.94,326.5 -21.79,21.3 -138.24,98.33 -166.48,105.73 -158.92,41.69 -325.26,-24.53 -456.45,14.4 -56.86,16.88 -283.59,153.3 -348.88,206.29 -53.58,43.49 -93.92,133.27 -74.16,199.18l72.9 -4.81c-0.43,37.15 -194.1,219.32 -122.41,326.3 98.54,34.7 141.22,-147.49 270.9,-61.25 2.59,47.45 -214.17,211.45 -127.05,355.86 63.39,36.24 118.29,-38.2 178.32,-61.98 112.14,-44.43 108.61,3.56 187.71,51.93 248.03,151.69 723.76,-210.32 893.3,-394.69 34.67,-37.7 45.9,-33.18 75.65,-60.45 25.79,-23.64 34.46,-54.77 62.45,-84.12 63.56,-66.68 80.96,-176.59 214.15,-330.28 91.25,-105.29 197.59,-173.65 280.43,-263.99 51.44,-56.1 240.38,-239.37 209.22,-318.24 -14.97,-37.89 -179.24,-349.66 -195.13,-360.94 -135.82,-27.63 -167.37,174.37 -295.68,-91.36 -66.03,-136.75 64.51,-224.81 167.02,-275.82 108.64,-54.06 224.19,-40.92 302.95,-63.49 58.89,-16.88 24.79,-23.34 101.69,-23.94 94.7,-0.73 393.65,-48.65 444.5,-35.13 23.54,81.58 -31.76,319.75 -6.88,425.6 63.29,269.34 138.91,441.51 320.86,642.4 75.74,83.61 205.25,96.89 205.23,276.36 57.12,-0.97 39.65,-0.12 68.42,-46.75 30.48,-49.39 31.36,-19.76 59.32,-66.32 32.62,-54.3 31.18,-128.72 71.19,-183.1 33.78,45.77 36.23,45.46 80.68,79.39 46.22,35.27 30.13,68.23 53.92,112.45 72.69,-7.24 77.75,-86.83 121.19,-142.42 70.85,-90.7 26.25,-107.23 81.8,-179.94 86.82,-9.85 115.91,-8.84 198.96,-31.37 52.37,-14.21 111.69,-76.45 162.18,-72 6.11,7.02 81.19,187.77 89.2,213.26 42.1,133.92 121.53,354.45 -45.41,440.73 -71.91,37.16 -143.26,72.66 -226.76,69.13 -203.49,-8.6 -265.12,-120.43 -444.84,86.56 -97.99,112.86 -258.38,165.95 -300.44,321.15 -21.35,78.79 -22.61,150.92 80.38,106.28 86.81,-37.62 28.9,23.63 -0.49,89.31 -26.42,59.03 -55.84,193.17 12.98,234.21 55.15,32.88 139.82,-93.08 208.03,-86.33 70.24,6.95 42.1,166.7 80.21,217.05 46.62,61.6 148.21,-43.14 194.7,-67.8 128.55,-68.18 325.58,56.63 517.71,-29.95 175.83,-79.24 448.2,-478.62 565.12,-649.17 142.86,-208.4 127.99,-195.55 133.91,-450.71 4.32,-185.73 -46.06,-298.55 -169.36,-435.26 -196.57,-217.95 -60.31,-259.29 -62.53,-466.09 -1.09,-101.25 -218.11,-298.57 -315.74,-297.06 -178.91,2.75 -195.63,168.03 -466.57,25.22 -160.26,-84.48 -222.64,-206.21 -234.27,-385.26 -5.37,-82.64 31.23,-472.23 76.08,-527.27 73.77,-90.49 690.41,-257.36 854.16,-977.43 58.1,-255.44 -3.12,-277.52 -67.56,-496.08 -41.65,-141.25 -94.8,-311.73 -146.37,-449 -112.39,-299.19 -187.15,-622.82 -301.45,-925.23 -58.94,-155.98 -78.77,-359.14 -58.12,-524.19 23.35,-186.75 98.23,-260.05 215.24,-393.28 110.72,-126.09 218.74,-219.63 400.76,-187.48 57.89,10.22 164.19,58.99 213.08,92.98 43.06,29.92 129.18,133.05 138.02,176.47 31.8,156.34 -59.43,205.11 -103.59,335.98l-48.35 108.69c-57.02,151 3.18,357.49 53.94,501.34 23.13,65.57 76.66,149.87 98.47,205.15 32.29,81.83 35.81,161.13 66.03,237.71 84.3,213.56 -78.89,418.33 -62.41,470.87 60.9,30.85 196.2,-147.7 235.77,-206.64 90.97,-135.52 83.22,-203.04 91.11,-369.08 81.43,16.38 45.66,142.66 103.79,165.7 107.08,16.21 94.6,-402.41 66.91,-483.33 -8.81,-25.78 -60.58,-106.41 -35.29,-126.48l87.19 85.54c140.38,-91.14 -69.84,-393.11 -61.55,-451.4l93.79 10.97c39.65,-118.35 -89.08,-425.6 -221.8,-472.18 -125.1,-43.91 -114.92,-227.52 -324.18,-377.28 -495.5,-354.61 -1135.7,-93.34 -1284.33,480.9 -66.28,256.09 -103.9,285.67 -15.98,558.22 30.18,93.57 52.16,164.39 87.42,257.53 33.9,89.57 51.01,195.57 83.15,272.82 69.94,168.08 112.5,369.14 170.21,541.72 58.59,175.21 116.57,350.71 174.72,526.74 47.55,143.99 41.43,470.56 -44.07,601.68 -110.82,169.96 -145.93,225.63 -344.28,357.75 -68.53,45.64 -198.14,43.06 -248.79,-29.14 -24.15,-34.4 -35.48,-81.67 -58.58,-119.4 -199.58,-325.91 -464.46,-656.72 -539.33,-1041.63 -172.47,-886.69 -36.81,-493.57 147.38,-713.91 50.81,-60.79 115.12,-172.35 91.71,-252.09 -44.15,-42.58 -74.31,8.54 -133.18,-29.53 -80.56,-140.96 106.75,-423.71 34.09,-614.27 -53.08,-139.21 25.24,-107.56 89.75,-205.87 31.28,-47.65 95.38,-217.05 76.24,-266.16 -63.9,-46.5 -126.72,51.56 -189.12,-122.46 -25.85,-72.08 6.22,-199.96 12.26,-284.88 9.84,-138.35 84.81,-113.81 166.48,-191.43 33.19,-31.55 123.47,-189.16 115.74,-228.63 -54.18,-28.74 -125.61,68.67 -170.93,-73.88 -32.95,-103.66 -25.26,-196.04 -22.81,-302.03 2.43,-105.69 -17.63,-190.71 -31.2,-293.36 -19.58,-148.02 -20.76,-115.79 -96.39,-228.17 -90.4,-134.35 -4.65,-310.5 -308.27,-330.38 -146.18,-9.57 -132.28,-39.14 -247.22,-77.33 -241.86,-80.34 -532.81,-86.68 -779.01,-24.97 -137.14,34.38 -118.16,56.27 -215.81,107.51 -78.79,41.34 -354.06,52.68 -461.92,165.25 -88.08,91.93 3.62,153.9 -16.24,226.09 -25.5,92.69 -82.2,138.21 -10.43,244.61 49.77,73.78 79.94,146.55 103.46,221.73 208.12,-7.99 43.55,-179.46 347.12,-74.91 132.44,45.62 206.8,157.25 206.64,295.91 -63.92,-5.77 -116.65,-122.39 -178.2,-156.83 -34.88,-19.51 -77.93,-23.46 -123.01,-44.55 -75.49,-35.32 -72.77,-18.71 -133.08,-2.64l-273.87 43.86c-148.22,16.04 -161.97,6.33 -304.83,-9.92 -73.33,-96.41 -54.66,-92.62 -161.05,-166.51 -15.23,21.46 -8.23,15.13 -17.49,35.03 -21.7,46.64 -38.09,69.53 -23.8,123.44 46.85,176.7 242.99,243.17 418.36,209.08 193.55,-37.62 355.29,-162.57 507.32,-13.51 35.56,34.86 95.67,69.73 121.24,105.5 -39.13,15.25 -155.29,0.43 -198.98,-17.29 -59.17,-24 -67.14,-117.38 -114.22,-137.06 -49.68,0.95 -76.17,44.32 -88.63,90.35 -20.74,76.63 40.36,48.5 -4.21,129.82 -44.33,80.88 -39.87,194.88 33.51,257.92 89.11,17.14 172.14,-45.86 283.45,-33.07 448.45,51.49 123.22,228.15 48,308.69 -70.49,75.47 -175.44,102.52 -272.17,125.67 -101.77,24.35 -217.19,84.87 -322.37,50.58 -19.61,-6.4 -99.33,-75.62 -106.42,-94.71 -30.17,-81.26 52.05,-55.72 25.3,-139.29 -76.97,-23.44 -433.59,271.77 -169.5,568.09 89.49,100.41 113.36,70.38 191.87,119.43 -7.67,43.26 -146.9,149.95 -175.04,206.57 -24.18,48.62 -40.55,72.89 -89.07,99.44 -71.96,39.37 -71.93,32.38 -138.73,-4.95 -139.58,-78.01 -532.64,-443.05 -561.32,-611.41 -28.62,-168.07 29.87,-154.55 -85.87,-311.97 -87.22,-118.61 -315.04,-310.74 -474.26,-310.97 0,-101.19 -22.24,-353.93 20.94,-429.25 40.93,-71.39 224.74,-155.09 302.11,-143.93 34.96,5.04 36.37,23.16 57.05,46.49 21.82,24.62 47.32,29.15 71.23,43.96 104.28,64.59 87.94,238.6 135.09,325.59 19.98,36.86 89.79,97.8 123.49,102.31 51.05,-31.82 74.05,-77.21 29.83,-129.53 -49.59,-58.66 -65.8,-55.17 -69.67,-150.67 -3.56,-87.81 3.17,-107.34 -31.99,-187.87 -26.99,-61.82 -84.31,-56.86 -94.55,-127.1 23.38,-29.88 52.91,-34.95 88.93,-47.17 68.55,-23.26 93.75,-78.16 170.14,-102.07 70.57,-22.08 36.21,-17.47 89.29,-46.82 67.22,-37.18 116.23,-38.93 189.31,-82.9 80.76,-48.58 153.66,-29.53 225.25,-57.43 22.49,-33.86 38.45,-99.51 23.2,-133.84 -66.34,-42.17 -110.59,102.45 -197.13,38.3 44.61,-63.37 129.41,-144.46 121.15,-236.32 -60.45,29.03 -99.7,22.64 -152.2,74.53 -54.62,53.99 -172.15,233.33 -215.74,255.4 -31.43,15.92 -151.53,54.4 -182.46,54.75 -2.64,-33.64 30.09,-118.39 47.43,-158.37 20.83,-48.03 67.83,-102.32 77.3,-133.88l-63.76 -53.18c-86.82,56.17 -41.92,0.13 -94.74,95.38l-135.15 241.76c-24.66,44.86 -13.45,21.96 -42.31,51.92 -40.63,42.2 -7.91,10.15 -28.2,66.02 -89.79,36.2 -120.48,32.99 -192.73,90.02 -35.15,27.75 -64.05,24.2 -107.29,24.39 -51.76,0.23 -71.56,17.51 -121.94,18.53 51.82,-113.48 95.41,-243.14 164,-349.01 24.62,-38.01 27.25,-21.6 56.82,-68.81l99.93 -161.81c31.56,-64.43 19.32,-31.53 67.97,-68.14 56.85,-42.78 55.42,-73.63 133.39,-117.88 60.07,-34.09 156.6,-23.43 230.27,-31.47 88.4,-9.66 123.46,-33.54 224.76,-22.15 90.09,10.13 125.32,-71.12 89.76,-142.93 -68.29,-34.1 -334.24,52.91 -393.5,14.99 6.17,-41.19 92.41,-93.61 130.13,-133.8 43.88,-46.78 93.73,-110.48 134.43,-148.25 65.82,-61.05 37.55,-97.57 144.05,-138.62 136.65,-52.68 157.72,-171.26 286.94,-22.01 74.31,85.83 346.76,60.27 415.85,-18.53 67.67,-77.18 102.46,-122.89 153.04,-213.39 31.9,-57.11 78.85,-251.21 50.62,-294.88 -81.63,11.27 -51.65,123.57 -203.73,142.55 -95.58,11.92 -162.47,-69.62 -277.34,-69.5 -66.67,0.07 -203.23,70.77 -225.86,130.87 -47.38,125.84 -17.42,145.06 -170.32,179.83l23.13 -126.51c-138.41,-45.88 -116.89,77.47 -219.18,229.42 -35.26,52.37 -184.54,245.97 -211.9,255.65 1.47,-127.33 99.73,-307.86 89.74,-393.36l-100.94 -28.69c-133.66,164.5 -59.29,389.39 -183.12,545.39 -19.17,24.16 -34.66,32.09 -46.68,47.55 -16.05,20.65 -18.59,39.1 -34.52,59.71 -20.94,27.07 -63.05,62.74 -88,100.44 -28.77,43.46 -122.77,204.71 -161.74,215.16 -47.97,-199.12 -11.19,-809.21 -35,-833.98 -24.28,-21.86 -80.9,-22.52 -107.99,0 -25.78,31.01 -0.79,120.97 -5.24,172.32 -2.64,30.36 -15.33,66.67 -13.71,93.69 2.07,34.56 15.54,60.36 13.58,95.04 -69.26,0.22 -141.1,-53.52 -210.29,-79.27 -67.91,-25.26 -120.57,-128.66 -175.3,-96.92 -44.02,41.86 -14.82,128.58 20.29,178.63 64.21,91.54 79.99,27.36 173.14,67.66 302.48,130.83 116.49,94.73 216.15,485.83 29.18,114.52 9.16,58.69 -36.34,164.6 -45.12,105.05 -131.72,210.38 -177.63,305.24 -85.33,-41.83 -167.66,-119.97 -204.33,-219.54 -30.55,-82.95 -25.29,-41.05 -62.1,-95.21 -57.28,-84.28 122.42,-325.83 110.83,-466.55 -29.92,-26.53 -49.74,-48.13 -85.38,-37.02 -69.56,38.66 -33.14,236.31 -139.58,304.23 -75.65,-39.92 -141.63,-237.38 -231.04,-323.41 11.13,-95.87 78.13,-319.48 107.27,-421.89 56.48,-198.44 46.37,-145.91 68.21,-329.64 7.99,-67.19 20.61,-25.92 20.65,-115.45 -86.37,0 -119.79,-20.19 -139.2,70.19l-153.05 485.6c-88.66,-24.39 -239.13,-266.83 -322.73,-348.67 12.63,-103.65 60.23,-209.97 60.09,-332.76 -67.74,-7.49 8.2,-21.02 -83.75,-20.94 -25.97,12.44 -13.39,42.18 -42.35,93.49 -29.55,52.32 -26.77,99.82 -44.1,123.68l0.08 -0.07zm-1039.72 13254.44c61.36,-44.11 619.57,-18.17 738.79,-18.17 251.27,0 502.54,0 753.81,0 -9.24,80.15 -8.34,-22.37 -30.64,63.58 -5.91,22.76 -7.53,52.69 -15.95,78.29l-164.01 403.77c-204.39,-19.48 -197.13,-63.89 -347.97,-112.69 -82.81,-26.78 -83.15,-18.58 -171.63,-58.69 -53.02,-24.03 -99.74,-49.86 -156.93,-62.95 -41.05,-9.39 -605.03,-256.49 -605.47,-293.14zm7103.3 506.32c-35.78,-65.26 -56.16,-143.6 -79.29,-213.86 -17.86,-54.28 -6.94,-83.93 -24.73,-121.84 -18.54,-39.55 -4.28,14.13 -21.15,-52.15 -22.63,-88.89 -147.71,-202.86 20.49,-200.43 214.99,3.11 1326.7,-18.79 1393.44,11.44 -10.62,25.72 -107.9,75.35 -145.65,95.16 -48.46,25.44 -90.03,57.73 -145.17,85.15 -67.73,33.67 -97.48,35.88 -161.91,78.9 -17.02,11.37 -141.78,63.68 -161.05,69.27 -81.36,23.6 -22.51,-14.61 -86.83,38.82l-157.65 72.67c-47.46,17.36 -60.29,2.78 -97.7,17.47 -38.45,15.08 8.74,4.7 -42.1,20.71 -115.99,36.51 -34.91,28.92 -117.18,60.81 -54.26,21.04 -148.45,26.14 -173.53,37.87l0.01 0.01zm-5704.92 82.75c54.54,-261.5 279.71,-658.06 182.71,-734.78 -70.24,-55.57 -480.3,-167.71 -698.88,-288.07 -427.27,-235.29 -905.53,-426.53 -1311.46,-698.72 -791.01,-530.41 -1523.13,-1172.44 -2097.38,-1933.42 -74.13,-98.22 -157.18,-178.98 -228.45,-284.56 -69.24,-102.55 -126.24,-199.67 -201.05,-301.49 -241.84,-329.18 -550.57,-928.2 -705.14,-1305.03 -44.41,-108.27 -93.69,-257.62 -148.24,-355.24 -71.54,-128.05 -181.84,-566.39 -235.9,-693.88 -42.11,-99.3 -72.43,-291.35 -98.37,-405.24 -51.85,-227.67 -87.91,-188.83 -144.68,-164.56 -51.93,22.2 -262.25,436.46 -316.5,533.48 -33.28,56.68 -64.28,99.79 -97.32,153.95 -82.78,135.72 -30.26,107.24 -292.7,-27.65 -89.83,-46.16 -406.53,-211.1 -484.72,-269.09 -127.69,-94.71 -52.5,-83.3 -167.97,-83.3 -0.1,73.54 74.96,531.12 102.89,598.4 67.83,163.46 134.66,387.81 183.5,560.01 47.53,167.61 154.2,364.63 195.99,527.1 59.33,230.62 359.09,775.05 474.07,1011.94 43.76,90.15 96.96,148.73 134.71,242.19 30.2,74.76 79.89,175.81 122.23,244.21 306.08,494.57 872,1236.94 1283.57,1679.33 187.86,201.93 537.98,585.28 748.84,737.85 95.44,69.07 329.94,257.06 404.43,338.92 266.3,292.65 1301.39,852.35 1312.38,907.18 -9.02,107.92 -323.37,530.49 -355.51,659.59 28.57,130.86 389.56,275.76 515.52,332.07 349.9,156.43 794.45,368.54 1155.33,478.04 208.18,63.17 441.5,125.03 644.33,193.12 218.69,73.42 457.28,100.25 669.86,167.72 203.47,64.58 503.05,75.02 720.68,116.9 424.19,81.64 1118.45,134.67 1545.98,102.46 126.67,-9.55 231.97,4.51 367.89,-10.8 140.8,-15.86 248.26,-11.61 386.81,-13.58 215.6,-3.06 527.01,-51.32 746.75,-80.57 456.23,-60.74 915.14,-186.17 1359.59,-301.95 455.44,-118.63 819.22,-273.54 1254.46,-420.69 196.23,-66.35 386.06,-173.73 576.22,-261.33 193.33,-89.07 360.78,-179.75 536.21,-301.38 -0.17,-139.74 -366.27,-582.28 -366.44,-732.87l895.11 -591.35c55.2,-42.61 149.5,-115.16 197.68,-161.81 68.26,-66.09 134.46,-89.5 206.21,-156.92 124.28,-116.77 271.5,-219.91 392.74,-340.14 127.24,-126.16 257.07,-219.41 384.54,-358.81 115.66,-126.51 242.65,-240.15 358.23,-374.64 104.79,-121.95 235.88,-285.77 350.85,-392.48 138.76,-128.79 215.01,-257.2 320.28,-412.6 101,-149.1 215.47,-279.47 304.44,-438.9 83.75,-150.07 201.99,-302.02 291.79,-451.55 199.98,-332.98 329.26,-635.38 505.35,-970.87 45.12,-85.99 65.82,-173.09 113.22,-263.69 123.52,-236.05 124.48,-352.88 195.59,-537.29 65.01,-168.63 245.8,-696.9 278.88,-830.89 23.51,-95.23 32.4,-209.66 54.92,-311.62 37.36,-169.26 186.19,-448.64 -192.39,-171.34 -35.81,26.24 -87.89,44.82 -103.27,57.33 -164.76,133.98 -312.26,171.94 -331.66,187.44 -74.17,59.22 -140.5,93.5 -215.35,143.02 -135.29,-141.92 -237.69,-331.45 -362.3,-492.34 -121.02,-156.24 -282.99,-533.18 -325.61,-91.92l-157.09 679.94c-74.81,204.49 -172.36,416.08 -239.58,618.93 -139.79,421.89 -339.19,757.67 -558.44,1137.64 -125.94,218.25 -340.21,588.22 -501.94,785.82 -69.82,85.31 -117.99,147.51 -179.6,239.18l-825.12 891.69c-57.81,58.82 -145.17,133.42 -210.46,196.31 -66.6,64.17 -165.92,115.97 -243.73,187.28 -148.5,136.09 -314.1,252.92 -476.46,371.59 -346.29,253.1 -706.12,426.38 -1069.27,647.75 -156.7,95.52 -406.94,208.67 -578.77,279.73 -156.32,64.66 -484.92,142.1 -582.97,265.06 73.68,235.66 148.79,468.06 210.28,723.3 -224.2,36.82 -425.87,126.05 -648.24,168.38 -93.72,17.84 -248.69,47.11 -336.73,71.59 -257.04,71.49 -763.68,99.3 -1054.26,160.22 -193.25,40.51 -546.87,29.12 -756.15,29.06l-789.73 -26.89c-220.82,-24.76 -483.61,-71.24 -674.11,-89.21 -199.12,-18.8 -517.41,-122.48 -682.29,-124.82 -54.44,-0.78 -275.52,-57.77 -326.46,-81.86 -70.83,-33.5 -303.29,-78.02 -312.37,-85.58zm8103.47 -14521.34l-0.05 4763.67c3.56,639.48 8.08,1296.5 -88.93,1925.1 -91.61,593.7 -129.61,653.34 -288.98,1194.04 -198.97,675.03 -653.18,1528.77 -1082.29,2089.73 -354.61,463.57 -726.33,853.18 -1168.97,1219.83 -145.12,120.2 -288.63,211.1 -440.64,318.9 -343.88,243.87 -572.08,400.05 -956.67,581.4 -294.17,138.7 -800,386.78 -1104.07,450.19 -212.37,44.29 -303.18,-22.13 -493.75,-92.81 -187.48,-69.53 -373.81,-122.95 -558.4,-205.84 -532.62,-239.15 -456.18,-180.25 -985.24,-501.18 -670.64,-406.8 -1170.89,-837.33 -1685.14,-1428.38 -460.88,-529.71 -967.61,-1288.07 -1228.74,-1939.34 -337.45,-841.61 -565,-1670.55 -566.72,-2584.89l1 -5790.43 10647.59 0.01zm-7379.98 -83.13l-3331.73 -0.63 2.49 5945.66c-1.38,781.05 14.72,631.25 162.56,1377.16 88.17,444.9 230.84,747.8 377.45,1162.9 207.04,586.2 787.14,1448.23 1191.24,1926.57 407.28,482.12 1154.95,1162.6 1702.18,1469.91 166.54,93.53 332.27,193.19 499.81,283.57 341.41,184.16 703.07,323.02 1064.18,451.84 200.81,71.64 327.25,167.72 555.16,133.79 259.58,-38.65 861.19,-333.44 1125.39,-455.54 367.32,-169.75 664.48,-344.28 987.27,-588.3 627.94,-474.72 1121.83,-880.88 1596.72,-1534.47 552.17,-759.92 786.09,-1142.7 1105.5,-2049.37 136.22,-386.65 262.41,-788.02 334.25,-1192.48 38.65,-217.53 39.46,-447.75 60.91,-668.92 25.87,-266.77 20.52,-887.75 19.85,-1226.43l0.03 -5035.88 -7453.26 0.62zm1995.03 -1337.17c-24.52,-45.06 -30.04,-28.69 -26.04,-87.13l81.85 1.6 -1.68 153.45c-30.48,-9.58 -35.9,-34.43 -54.13,-67.92zm181.55 92.45c-22.97,-40.03 -12.34,-126.56 -8.67,-179.6l90.63 1.62c-6.37,38.96 -57.12,146.52 -81.96,177.99l0 -0.01zm-544.41 -274.01c0,-49.99 -26.36,-283.68 39.23,-271.53 55.18,10.22 -10.53,10 77.82,81.18 99.51,80.17 92.34,-15.08 92.34,190.35l-209.39 0zm416.98 -1.79c-29.61,2.3 -102.07,17.5 -108.28,-19.96 -0.47,-2.84 23.6,-90.85 25.42,-94.31 44.25,13.29 82.86,63.75 82.86,114.27zm198.03 -110.68c17.12,23.55 21.54,82.61 21.84,112.31l-101.11 -1.63c-3.59,-46.75 5.94,-59.37 20.97,-101l58.3 -9.68zm128.33 91.54c-8.74,-18.97 -18.19,-90.41 -14.43,-103.75 12.2,-43.24 85.55,-10.05 142.67,-103.06 35.76,-58.23 4.65,-26.16 60.01,-54.03l-1.61 269.52c-51.16,3.97 -149.02,15.27 -186.65,-8.67l0.01 -0.01zm-353.27 -201.62c4.37,-34.11 63.36,-144.13 83.75,-174.39 22.7,30.75 56.17,129.44 82.86,177.08 -32.47,18.56 -57.75,20.73 -82.12,50.85l-84.49 -53.54zm408.35 -281.92c11.56,-97.43 35.65,-193.45 39.62,-302 2.57,-70.26 25.48,-167.02 91.81,-219.2 6.37,84.23 14.8,598.26 -7.28,638.76 -35.64,-9.78 -68.08,-75.91 -124.15,-117.56zm-798.42 117.1c0,-110.71 -15.96,-591.37 10.46,-649.11 94.86,67.61 79.34,258.77 104.96,352.43 62.71,229.23 -5.47,167.74 -42.45,254.49 -24.2,56.76 7.28,42.19 -72.98,42.19l0.01 0zm1036.49 -879.45c-76.34,17.47 -173.75,130.36 -218,200.79 -81.13,129.1 -73.13,177.11 -99.09,320.54 -9.55,52.78 -41.57,308.19 -8.67,327.89 34.23,20.49 106.55,7.46 75.5,114.98 -14.65,50.72 -90.4,86.79 -126.8,41.76 -118.25,-146.32 -145.52,-510.14 -122.44,-688.81 9.43,-73.05 16.81,-310.32 -11.26,-371.76 -23.67,-51.81 -44.43,-134.2 -93.87,-48.2 -26.25,45.64 -44.49,98.03 -44.49,155.18l21.51 407.7c20.6,294.94 -93.92,438.6 -126.95,555.36l-51.62 0.13c-61.31,0.09 -82.64,-74.13 -76.89,-98.01 17.3,-71.8 63.42,-59.61 98.69,-79.11 -1.21,-103.17 -36.63,-418.84 -65.74,-511.81 -46.35,-147.98 -160.55,-263.74 -290.44,-336.77l-0.63 1371.2c408.05,0 288.34,-28.35 359.14,111.97 56.36,111.69 200.76,245.11 227.14,243.99l90.29 -77.24c310.44,-279.66 -82.77,-278.73 464.6,-278.73l0 -1361.06 0.02 0.01zm-922.23 2565.95c-31.05,-25.35 -50.77,-63.71 -45.99,-100.22 25.63,-195.76 225.94,51.21 45.99,100.22zm56.84 -433.74c56.35,168.81 -109.2,174.16 -96.46,47.89 5.37,-53.09 15.08,-44.45 43.16,-74.72l53.3 26.83zm-35 -163.92c-100.84,22.32 -164.13,-18.43 -201.83,133.21 -34.91,140.44 58.91,196.5 13.04,263.36 -109.36,159.44 9.71,385.55 204.1,361.37 91.59,-11.4 159.19,-55.22 191.59,-142.86 44.67,-120.79 4.06,-151.79 -46.62,-243.25 -24.81,-44.78 67.54,-93.94 29.17,-238.36 -37.8,-142.26 -176.06,-146.86 -189.45,-133.47zm1520.78 583.6c-62.39,-78.91 -29.03,-212.14 43.9,-182.24 42.85,17.57 74.57,196.08 -43.9,182.24zm-34.09 -311.39c-0.07,-56.45 5.62,-93.57 44.14,-133.39 73.18,9.06 44.16,30.28 80.35,61.23l140.48 -16.17c30.41,-213.48 -442.85,-369.63 -443.33,171.78 -0.08,91.59 11.83,210 52.14,272.84 111.11,173.18 347.63,161.75 397.21,-32.96 21.92,-86.04 15.55,-203.28 -34.22,-277.43 -66.07,-98.43 -150.5,-66.45 -236.77,-45.9zm-943.18 136.91c23.28,13.05 84.28,30.79 116.72,30.36 72.2,-0.95 37.08,-35.22 105.71,-52.95 62.8,50.4 55.74,135.43 6.42,186.91 -85.96,8.72 -35.21,3.75 -90.59,-40.74 -1.83,-0.6 -250.79,-26.28 -98.64,150.98 85.79,99.93 282.09,104.13 363.95,-40.21 43.49,-76.7 41.52,-208.17 7.74,-289.6 -50.54,-121.8 -134.94,-105.6 -240.34,-82.72 -17.76,-166.43 102.24,-61.25 220.98,-99.96l1.08 -171.35 -350.25 0.16c3.56,165.97 -0.69,48.14 -13.72,203.39l-29.06 205.73zm-949.2 -2607.74l1484.06 0 0 1371.52c0,231.1 53,382.58 -192.28,488.24 -590.68,254.45 -403.79,326.62 -1007.45,30.96 -265.87,-130.23 -286.95,-118.04 -286.95,-435.44l2.62 -1455.28zm1515.46 -31.41l-1549.49 0c0,492.07 0.09,984.15 -0.02,1476.23 -0.06,279.21 -10.47,342.14 260.7,450.25 114.03,45.47 415.39,216.92 510.17,234.89 47.59,9.02 433.45,-180.36 506.33,-214.13 292.74,-135.6 272.4,-145.92 272.32,-471.02 -0.13,-492.08 -0.01,-984.15 -0.01,-1476.22zm-1028.45 16206.41c20.21,52.28 39.09,58.89 55.34,132.51 13.09,59.35 96.93,174.8 141,218.55 78.35,77.79 1.2,78.74 120.18,78.74 25.54,-40.88 -8.68,-16.5 37.29,-67.42 110.09,-121.94 22.42,-44.12 75.32,-134.19 58.79,-100.09 61.25,-99.33 60.91,-212.64 -0.14,-50.06 2.35,-130.97 -26.77,-172.21 -12.02,-17.02 -103.15,-88.53 -116.96,-92.44 -168.77,-47.77 -269.5,2.42 -309.36,168.3 -24.72,102.88 4.87,13.4 -36.94,80.8l-0.01 0zm-1032.92 -13807.74l3.86 145.43 108.82 11.86 2.18 410.13 156.2 8.1 0.02 -744.16c-147.81,0 -128.62,-13.4 -154.49,65.36 -18.87,57.45 -59.19,85.33 -116.59,103.28zm1894.23 2552.49c-29.68,-30.17 4.84,-72.64 25.66,-91.24 24.74,-22.09 170.24,92.04 180.67,164.6 -40.59,-19.2 -149.39,-19.08 -206.34,-73.36l0.01 0z"/>
 </g>
</svg>
