<?xml version="1.0" encoding="UTF-8"?>
<!DOCTYPE svg PUBLIC "-//W3C//DTD SVG 1.1//EN" "http://www.w3.org/Graphics/SVG/1.1/DTD/svg11.dtd">
<!-- Creator: CorelDRAW 2020 (64-Bit) -->
<svg xmlns="http://www.w3.org/2000/svg" xml:space="preserve" width="210mm" height="297mm" version="1.1" style="shape-rendering:geometricPrecision; text-rendering:geometricPrecision; image-rendering:optimizeQuality; fill-rule:evenodd; clip-rule:evenodd"
viewBox="0 0 21000 29700"
 xmlns:xlink="http://www.w3.org/1999/xlink"
 xmlns:xodm="http://www.corel.com/coreldraw/odm/2003"
 aria-hidden="true"
 data-prefix="fas"
 data-icon="key">
 <defs>
  <style type="text/css">
   <![CDATA[
    .fil0 {fill:#0E8F57}
   ]]>
  </style>
 </defs>
 <g id="Слой_x0020_1">
  <metadata id="CorelCorpID_0Corel-Layer"/>
  <path class="fil0" d="M13781.25 18787.5c3986.8,0 7218.75,-3231.91 7218.75,-7218.71 0,-3998.61 -3220.22,-7218.83 -7218.79,-7218.79 -3986.8,0.04 -7218.71,3231.95 -7218.71,7218.75 0,790.41 127.48,1550.96 362.2,2262.74l-6636.41 6636.41c-184.57,184.62 -288.3,435.02 -288.3,696.08l0 3201.64c0,543.67 440.72,984.38 984.38,984.38l4593.75 0.01c543.67,0 984.38,-440.72 984.38,-984.38l0 -1640.63 1640.62 0.01c543.67,0 984.38,-440.72 984.38,-984.38l0 -1640.63 1526.76 -0.01c281.08,0 548.95,-120.29 735.7,-330.37l984.87 -1108c436.28,82.32 886.22,125.88 1346.42,125.88zm1968.75 -7218.75c-1087.32,0 -1968.75,-881.43 -1968.75,-1968.75 0,-1087.32 881.43,-1968.75 1968.75,-1968.75 1087.32,0 1968.75,881.43 1968.75,1968.75 0,1087.32 -881.43,1968.75 -1968.75,1968.75z"/>
 </g>
</svg>
