<?xml version="1.0" encoding="UTF-8"?>
<!DOCTYPE svg PUBLIC "-//W3C//DTD SVG 1.1//EN" "http://www.w3.org/Graphics/SVG/1.1/DTD/svg11.dtd">
<!-- Creator: CorelDRAW 2020 (64-Bit) -->
<svg xmlns="http://www.w3.org/2000/svg" xml:space="preserve" width="210mm" height="297mm" version="1.1" style="shape-rendering:geometricPrecision; text-rendering:geometricPrecision; image-rendering:optimizeQuality; fill-rule:evenodd; clip-rule:evenodd"
viewBox="0 0 21000 29700"
 xmlns:xlink="http://www.w3.org/1999/xlink"
 xmlns:xodm="http://www.corel.com/coreldraw/odm/2003"
 aria-hidden="true"
 data-prefix="fas"
 data-icon="user">
 <defs>
  <style type="text/css">
   <![CDATA[
    .fil0 {fill:#0E8F57}
   ]]>
  </style>
 </defs>
 <g id="Слой_x0020_1">
  <metadata id="CorelCorpID_0Corel-Layer"/>
  <path class="fil0" d="M13917.19 16350c-1040.63,478.13 -2198.44,750 -3417.19,750 -1218.75,0 -2371.88,-271.88 -3417.19,-750l-782.81 0c-3478.13,0 -6300,2821.88 -6300,6300l0 1950c0,1242.19 1007.81,2250 2250,2250l16500 0c1242.19,0 2250,-1007.81 2250,-2250l0 -1950c0,-3478.13 -2821.88,-6300 -6300,-6300l-782.81 0z"/>
  <path class="fil0" d="M10500 14850c3314.06,0 6000,-2685.94 6000,-6000 0,-3314.06 -2685.94,-6000 -6000,-6000 -3314.06,0 -6000,2685.94 -6000,6000 0,3314.06 2685.94,6000 6000,6000z"/>
 </g>
</svg>
